<svg width="141" height="136" viewBox="0 0 141 136" fill="none" xmlns="http://www.w3.org/2000/svg">
<path d="M81.0953 13.5731C82.9143 13.5731 84.4035 12.1775 84.4035 10.4384C84.4035 8.69931 82.9143 7.30374 81.0953 7.30374C79.2763 7.30374 77.787 8.69931 77.787 10.4384C77.787 12.1775 79.2763 13.5731 81.0953 13.5731Z" fill="#FFC800" stroke="black" stroke-width="0.3"/>
<path d="M41.4122 67.6861C39.5771 67.6861 38.1039 69.0773 38.1039 70.8208C38.1039 72.5649 39.602 73.9554 41.4122 73.9554C43.2223 73.9554 44.7204 72.5649 44.7204 70.8208C44.7204 69.0766 43.2223 67.6861 41.4122 67.6861Z" fill="#FFC800" stroke="black" stroke-width="0.3"/>
<path d="M56.7457 13.5731C58.5647 13.5731 60.0539 12.1775 60.0539 10.4384C60.0539 8.69931 58.5647 7.30374 56.7457 7.30374C54.9267 7.30374 53.4374 8.69931 53.4374 10.4384C53.4374 12.1775 54.9267 13.5731 56.7457 13.5731Z" fill="#FFC800" stroke="black" stroke-width="0.3"/>
<path d="M46.3929 20.2191C46.6838 20.4931 47.0771 20.683 47.4872 20.6902V20.6904H47.5113H90.0876C90.495 20.6904 90.8977 20.4979 91.1964 20.2197C91.4945 19.9419 91.7082 19.5604 91.7082 19.1628V14.9506H103.583V24.7526H34.0157V14.9506H45.8906V19.1628C45.8906 19.5588 46.0969 19.9403 46.3929 20.2191ZM115.975 125.923V126.073H115.997C115.913 129.577 112.87 132.202 109.326 132.202H28.4894C24.6617 132.202 21.8166 129.279 21.8166 125.923V9.74957C21.8166 6.17046 24.8957 3.471 28.4894 3.471H45.8665V11.8955H32.3709C31.9635 11.8955 31.5608 12.0879 31.2621 12.3662C30.964 12.6439 30.7503 13.0255 30.7503 13.423V122.479C30.7503 122.875 30.9565 123.257 31.2525 123.535C31.5491 123.815 31.9522 124.007 32.3709 124.007H105.421C105.828 124.007 106.231 123.814 106.53 123.536C106.828 123.258 107.041 122.877 107.041 122.479V13.423C107.041 13.0271 106.835 12.6455 106.539 12.3668C106.243 12.0874 105.84 11.8955 105.421 11.8955H91.9252V3.471H109.302C113.13 3.471 115.975 6.39332 115.975 9.74957V125.923ZM109.085 0.186304H28.4894C22.8217 0.186304 18.3583 4.3779 18.3583 9.74957V125.923C18.3583 131.295 22.8217 135.486 28.4894 135.486H109.085C114.753 135.486 119.216 131.295 119.216 125.923V9.74957C119.216 4.60981 114.755 0.186304 109.085 0.186304ZM49.3489 3.24141H88.7321V17.4057H49.3489V3.24141ZM103.824 27.8077V120.722H34.0157V27.8077H103.824Z" fill="#FFC800" stroke="black" stroke-width="0.3"/>
<path d="M61.77 61.2532L61.7771 61.241L61.7817 61.2278C62.2656 59.8452 62.7538 57.9915 62.7545 56.3604C62.9934 51.3213 59.6633 46.9712 55.1073 45.063C56.4878 43.8754 57.1612 42.0753 57.1612 40.2853C57.1612 36.5241 53.9308 33.2476 49.7062 33.2476C45.7294 33.2476 42.2512 36.2882 42.2512 40.2853C42.2512 42.0753 42.9247 43.8754 44.3052 45.063C39.7472 46.9719 36.4169 51.3219 36.4169 56.3568C36.4169 57.9737 36.6587 59.8389 37.3984 61.2479C37.6548 61.7361 38.1729 62.2366 38.9778 62.2464V62.2466H39.0019H60.1695C60.9656 62.2466 61.4893 61.7392 61.77 61.2532ZM46.1259 53.4418L46.1375 53.464L46.1557 53.4811L49.0724 56.2358L49.1758 56.1272L49.0729 56.2362L49.0728 56.2362C49.3502 56.5001 49.7597 56.6216 50.1824 56.6216C50.6074 56.6216 51.0635 56.4993 51.4502 56.2538L51.4623 56.2461L51.4727 56.2362L54.3899 53.4811L54.3904 53.4807C54.6515 53.232 54.7927 52.9717 54.8277 52.672C54.8618 52.3794 54.7924 52.0663 54.6696 51.7154L54.6699 51.7153L54.6661 51.7062L52.8277 47.3835C56.9894 48.381 59.955 51.9188 59.9712 56.3204C59.7305 56.7923 59.6104 57.3151 59.5215 57.8233C59.493 57.986 59.4678 58.146 59.4432 58.3026C59.3943 58.6134 59.3475 58.9112 59.2809 59.1915H57.3541V56.3568C57.3541 55.9608 57.1479 55.5793 56.8519 55.3005C56.5552 55.0211 56.1522 54.8292 55.7335 54.8292C55.3147 54.8292 54.9117 55.0211 54.615 55.3005C54.3191 55.5793 54.1128 55.9608 54.1128 56.3568V58.9619H46.1435V56.3568C46.1435 55.9608 45.9372 55.5793 45.6413 55.3005C45.3446 55.0211 44.9416 54.8292 44.5228 54.8292C44.1041 54.8292 43.7011 55.0211 43.4044 55.3005C43.1084 55.5793 42.9022 55.9608 42.9022 56.3568V58.9619H40.974C40.7426 58.0789 40.5261 57.2161 40.5261 56.3568C40.5261 52.1523 43.5136 48.5876 47.7174 47.3847L45.8818 51.7009C45.7409 51.974 45.7475 52.2995 45.8105 52.5993C45.8745 52.9042 46.0013 53.2046 46.1259 53.4418ZM49.6821 36.5323C51.8019 36.5323 53.6789 38.3103 53.6789 40.2853C53.6789 42.2604 51.8019 44.0384 49.6821 44.0384C47.5623 44.0384 45.6854 42.2604 45.6854 40.2853C45.6854 38.3103 47.5623 36.5323 49.6821 36.5323ZM49.9232 49.8895L50.7118 51.9548L49.9232 52.7058L49.1346 51.9548L49.9232 49.8895Z" fill="#FFC800" stroke="black" stroke-width="0.3"/>
<path d="M67.4501 55.129H99.3462C99.7536 55.129 100.156 54.9366 100.455 54.6583C100.753 54.3806 100.967 53.999 100.967 53.6015V39.1372C100.967 38.7412 100.761 38.3597 100.465 38.0809C100.168 37.8015 99.7649 37.6096 99.3462 37.6096H67.4501C67.0427 37.6096 66.64 37.8021 66.3413 38.0804C66.0432 38.3581 65.8295 38.7397 65.8295 39.1372V53.6015C65.8295 53.9974 66.0357 54.379 66.3317 54.6577C66.6284 54.9371 67.0314 55.129 67.4501 55.129ZM69.0708 40.6647H97.7497V51.8443H69.0708V40.6647Z" fill="#FFC800" stroke="black" stroke-width="0.3"/>
<path d="M64.2914 72.1188H97.8992C98.3066 72.1188 98.7093 71.9264 99.008 71.6481C99.3061 71.3704 99.5199 70.9888 99.5199 70.5913C99.5199 70.1953 99.3136 69.8138 99.0177 69.535C98.721 69.2556 98.318 69.0637 97.8992 69.0637H64.2914C63.884 69.0637 63.4813 69.2562 63.1826 69.5345C62.8845 69.8122 62.6708 70.1938 62.6708 70.5913C62.6708 70.9873 62.877 71.3688 63.173 71.6476C63.4697 71.927 63.8727 72.1188 64.2914 72.1188Z" fill="#FFC800" stroke="black" stroke-width="0.3"/>
<path d="M58.2164 69.0637H50.6703C50.2629 69.0637 49.8603 69.2562 49.5616 69.5345C49.2634 69.8122 49.0497 70.1938 49.0497 70.5913C49.0497 70.9873 49.2559 71.3688 49.5519 71.6476C49.8486 71.927 50.2516 72.1188 50.6703 72.1188H58.2164C58.6238 72.1188 59.0265 71.9264 59.3252 71.6481C59.6233 71.3704 59.8371 70.9888 59.8371 70.5913C59.8371 70.1953 59.6308 69.8138 59.3349 69.535C59.0382 69.2556 58.6352 69.0637 58.2164 69.0637Z" fill="#FFC800" stroke="black" stroke-width="0.3"/>
<path d="M41.4122 77.5589C39.5771 77.5589 38.1039 78.9501 38.1039 80.6936C38.1039 82.4377 39.602 83.8282 41.4122 83.8282C43.2223 83.8282 44.7204 82.4377 44.7204 80.6936C44.7204 78.9494 43.2223 77.5589 41.4122 77.5589Z" fill="#FFC800" stroke="black" stroke-width="0.3"/>
<path d="M64.2914 82.221H97.8992C98.3066 82.221 98.7093 82.0286 99.008 81.7503C99.3061 81.4726 99.5199 81.091 99.5199 80.6935C99.5199 80.2975 99.3136 79.916 99.0177 79.6372C98.721 79.3578 98.318 79.1659 97.8992 79.1659H64.2914C63.884 79.1659 63.4814 79.3584 63.1826 79.6366C62.8845 79.9144 62.6708 80.2959 62.6708 80.6935C62.6708 81.0894 62.877 81.471 63.173 81.7497C63.4697 82.0291 63.8727 82.221 64.2914 82.221Z" fill="#FFC800" stroke="black" stroke-width="0.3"/>
<path d="M58.2164 79.1659H50.6703C50.2629 79.1659 49.8603 79.3584 49.5616 79.6366C49.2634 79.9144 49.0497 80.2959 49.0497 80.6935C49.0497 81.0894 49.2559 81.471 49.5519 81.7497C49.8486 82.0291 50.2516 82.221 50.6703 82.221H58.2164C58.6238 82.221 59.0265 82.0286 59.3252 81.7503C59.6233 81.4726 59.8371 81.091 59.8371 80.6935C59.8371 80.2975 59.6308 79.916 59.3349 79.6372C59.0382 79.3578 58.6352 79.1659 58.2164 79.1659Z" fill="#FFC800" stroke="black" stroke-width="0.3"/>
<path d="M41.4122 87.6609C39.5771 87.6609 38.1039 89.0522 38.1039 90.7956C38.1039 92.5398 39.602 93.9303 41.4122 93.9303C43.2223 93.9303 44.7204 92.5398 44.7204 90.7956C44.7204 89.0514 43.2223 87.6609 41.4122 87.6609Z" fill="#FFC800" stroke="black" stroke-width="0.3"/>
<path d="M64.2914 92.3228H97.8992C98.3066 92.3228 98.7093 92.1304 99.008 91.8521C99.3061 91.5744 99.5199 91.1928 99.5199 90.7953C99.5199 90.3993 99.3136 90.0178 99.0177 89.739C98.721 89.4596 98.318 89.2677 97.8992 89.2677H64.2914C63.884 89.2677 63.4813 89.4602 63.1826 89.7385C62.8845 90.0162 62.6708 90.3978 62.6708 90.7953C62.6708 91.1912 62.877 91.5728 63.173 91.8515C63.4697 92.1309 63.8727 92.3228 64.2914 92.3228Z" fill="#FFC800" stroke="black" stroke-width="0.3"/>
<path d="M58.2164 89.2677H50.6703C50.2629 89.2677 49.8603 89.4602 49.5616 89.7385C49.2634 90.0162 49.0497 90.3978 49.0497 90.7953C49.0497 91.1912 49.2559 91.5728 49.5519 91.8515C49.8486 92.1309 50.2516 92.3228 50.6703 92.3228H58.2164C58.6238 92.3228 59.0265 92.1304 59.3252 91.8521C59.6233 91.5744 59.8371 91.1928 59.8371 90.7953C59.8371 90.3993 59.6308 90.0178 59.3349 89.739C59.0382 89.4596 58.6352 89.2677 58.2164 89.2677Z" fill="#FFC800" stroke="black" stroke-width="0.3"/>
<path d="M41.4122 97.7628C39.5771 97.7628 38.1039 99.1541 38.1039 100.898C38.1039 102.642 39.602 104.032 41.4122 104.032C43.2223 104.032 44.7204 102.642 44.7204 100.898C44.7204 99.1534 43.2223 97.7628 41.4122 97.7628Z" fill="#FFC800" stroke="black" stroke-width="0.3"/>
<path d="M64.2914 102.425H97.8992C98.3066 102.425 98.7093 102.232 99.008 101.954C99.3061 101.676 99.5199 101.295 99.5199 100.897C99.5199 100.395 99.3201 100.008 99.0111 99.7491C98.7055 99.4933 98.3019 99.3698 97.8992 99.3698H64.2914C63.884 99.3698 63.4814 99.5622 63.1826 99.8405C62.8845 100.118 62.6708 100.5 62.6708 100.897C62.6708 101.293 62.877 101.675 63.173 101.954C63.4697 102.233 63.8727 102.425 64.2914 102.425Z" fill="#FFC800" stroke="black" stroke-width="0.3"/>
<path d="M58.2164 99.3698H50.6703C50.2629 99.3698 49.8603 99.5622 49.5616 99.8405C49.2634 100.118 49.0497 100.5 49.0497 100.897C49.0497 101.293 49.2559 101.675 49.5519 101.954C49.8486 102.233 50.2516 102.425 50.6703 102.425H58.2164C58.6238 102.425 59.0265 102.232 59.3252 101.954C59.6233 101.676 59.8371 101.295 59.8371 100.897C59.8371 100.395 59.6373 100.008 59.3283 99.7491C59.0227 99.4933 58.6191 99.3698 58.2164 99.3698Z" fill="#FFC800" stroke="black" stroke-width="0.3"/>
<path d="M41.4122 107.865C39.5771 107.865 38.1039 109.256 38.1039 110.999C38.1039 112.744 39.602 114.134 41.4122 114.134C43.2223 114.134 44.7204 112.744 44.7204 110.999C44.7204 109.255 43.2223 107.865 41.4122 107.865Z" fill="#FFC800" stroke="black" stroke-width="0.3"/>
<path d="M64.2914 112.297H97.8992C98.3066 112.297 98.7093 112.105 99.008 111.827C99.3061 111.549 99.5199 111.167 99.5199 110.77C99.5199 110.374 99.3136 109.992 99.0177 109.714C98.721 109.434 98.318 109.242 97.8992 109.242H64.2914C63.884 109.242 63.4814 109.435 63.1826 109.713C62.8845 109.991 62.6708 110.372 62.6708 110.77C62.6708 111.166 62.877 111.547 63.173 111.826C63.4697 112.106 63.8727 112.297 64.2914 112.297Z" fill="#FFC800" stroke="black" stroke-width="0.3"/>
<path d="M58.2164 109.242H50.6703C50.2629 109.242 49.8603 109.435 49.5616 109.713C49.2634 109.991 49.0497 110.372 49.0497 110.77C49.0497 111.166 49.2559 111.547 49.5519 111.826C49.8486 112.106 50.2516 112.297 50.6703 112.297H58.2164C58.6238 112.297 59.0265 112.105 59.3252 111.827C59.6233 111.549 59.8371 111.167 59.8371 110.77C59.8371 110.374 59.6308 109.992 59.3349 109.714C59.0382 109.434 58.6352 109.242 58.2164 109.242Z" fill="#FFC800" stroke="black" stroke-width="0.3"/>
<path d="M131.242 26.1302C126.057 26.1302 121.834 30.0921 121.834 35.0046C121.834 39.9172 126.057 43.8791 131.242 43.8791C136.428 43.8791 140.65 39.9172 140.65 35.0046C140.65 30.0921 136.428 26.1302 131.242 26.1302ZM131.242 40.3648C127.917 40.3648 125.317 37.8985 125.317 34.7751C125.317 31.6516 127.917 29.1853 131.242 29.1853C134.567 29.1853 137.168 31.6516 137.168 34.7751C137.168 37.8985 134.567 40.3648 131.242 40.3648Z" fill="#FFC800" stroke="black" stroke-width="0.3"/>
<path d="M7.32233 90.6455C3.33871 90.6455 0.349512 93.6926 0.349512 97.2241C0.349512 100.759 3.58333 103.803 7.32233 103.803C11.0613 103.803 14.2951 100.759 14.2951 97.2241C14.2951 93.6892 11.0613 90.6455 7.32233 90.6455ZM7.32233 100.748C5.20239 100.748 3.56669 99.199 3.56669 97.2241C3.56669 95.2492 5.20239 93.7006 7.32233 93.7006C9.44226 93.7006 11.078 95.2492 11.078 97.2241C11.078 99.1933 9.20734 100.748 7.32233 100.748Z" fill="#FFC800" stroke="black" stroke-width="0.3"/>
<path d="M131.99 119.345C130.711 119.345 129.646 120.321 129.646 121.561C129.646 122.801 130.711 123.777 131.99 123.777C133.269 123.777 134.334 122.801 134.334 121.561C134.334 120.321 133.269 119.345 131.99 119.345Z" fill="#FFC800" stroke="black" stroke-width="0.3"/>
<path d="M131.99 16.3282C133.269 16.3282 134.334 15.3516 134.334 14.1119C134.334 12.8721 133.269 11.8955 131.99 11.8955C130.711 11.8955 129.646 12.8721 129.646 14.1119C129.646 15.3516 130.711 16.3282 131.99 16.3282Z" fill="#FFC800" stroke="black" stroke-width="0.3"/>
<path d="M5.6109 13.3434C6.88998 13.3434 7.95481 12.3668 7.95481 11.1271C7.95481 9.8874 6.88998 8.91079 5.6109 8.91079C4.33182 8.91079 3.26699 9.8874 3.26699 11.1271C3.26699 12.3668 4.33182 13.3434 5.6109 13.3434Z" fill="#FFC800" stroke="black" stroke-width="0.3"/>
<path d="M11.71 45.027C12.9891 45.027 14.0539 44.0504 14.0539 42.8107C14.0539 41.571 12.9891 40.5944 11.71 40.5944C10.4309 40.5944 9.36611 41.571 9.36611 42.8107C9.36611 44.0504 10.4309 45.027 11.71 45.027Z" fill="#FFC800" stroke="black" stroke-width="0.3"/>
<path d="M4.97793 77.2496C4.97793 78.4893 6.04276 79.4659 7.32184 79.4659C8.60092 79.4659 9.66575 78.4893 9.66575 77.2496C9.66575 76.0098 8.60092 75.0332 7.32184 75.0332C6.04276 75.0332 4.97793 76.0098 4.97793 77.2496Z" fill="#FFC800" stroke="black" stroke-width="0.3"/>
<path d="M11.71 115.212C10.4309 115.212 9.36611 116.188 9.36611 117.428C9.36611 118.668 10.4309 119.644 11.71 119.644C12.9891 119.644 14.0539 118.668 14.0539 117.428C14.0539 116.188 12.9891 115.212 11.71 115.212Z" fill="#FFC800" stroke="black" stroke-width="0.3"/>
<path d="M124.443 72.0487C123.164 72.0487 122.099 73.0253 122.099 74.2651C122.099 75.5048 123.164 76.4814 124.443 76.4814C125.722 76.4814 126.787 75.5048 126.787 74.2651C126.787 73.0253 125.722 72.0487 124.443 72.0487Z" fill="#FFC800" stroke="black" stroke-width="0.3"/>
</svg>
