<svg width="142" height="136" viewBox="0 0 142 136" fill="none" xmlns="http://www.w3.org/2000/svg">
<path d="M110.959 113.665H110.934V113.815C110.934 118.13 107.496 121.491 103.045 121.491H40.7229C36.2723 121.491 32.8338 118.13 32.8338 113.815V21.1243C32.8338 16.8087 36.2723 13.4482 40.7229 13.4482H103.07C107.52 13.4482 110.959 16.8087 110.959 21.1243V113.665ZM103.045 9.9689H40.7229C34.3719 9.9689 29.2733 14.9236 29.2733 21.1243V113.815C29.2733 120.015 34.3719 124.97 40.7229 124.97H103.07C109.446 124.97 114.519 120.015 114.519 113.815V21.1243C114.519 14.9236 109.421 9.9689 103.07 9.9689H103.045Z" fill="#FFC800" stroke="black" stroke-width="0.3"/>
<path d="M40.4748 60.6497H90.7505C91.1712 60.6497 91.5863 60.4447 91.8935 60.1493C92.2006 59.8542 92.4187 59.4506 92.4187 59.0323V52.9182C92.4187 52.5015 92.2082 52.0979 91.9035 51.8018C91.5983 51.5053 91.1829 51.3008 90.7505 51.3008H40.4748C40.0541 51.3008 39.639 51.5059 39.3317 51.8012C39.0247 52.0964 38.8065 52.5 38.8065 52.9182V59.0323C38.8065 59.5632 39.0108 59.9721 39.3283 60.2464C39.6427 60.518 40.0588 60.6497 40.4748 60.6497ZM79.8249 54.5356H89.0823V57.4149H79.8249V54.5356ZM67.256 54.5356H76.5133V57.4149H67.256V54.5356ZM54.687 54.5356H63.9444V57.4149H54.687V54.5356ZM42.1181 54.5356H51.3755V57.4149H42.1181V54.5356Z" fill="#FFC800" stroke="black" stroke-width="0.3"/>
<path d="M103.295 63.5287H40.4748C40.0541 63.5287 39.639 63.7338 39.3317 64.0291C39.0247 64.3243 38.8065 64.7279 38.8065 65.1461V114.059C38.8065 114.476 39.0171 114.879 39.3218 115.176C39.6269 115.472 40.0423 115.677 40.4748 115.677H103.319C103.74 115.677 104.155 115.472 104.462 115.176C104.77 114.881 104.988 114.477 104.988 114.059V65.1461C104.988 64.7465 104.852 64.3421 104.572 64.036C104.289 63.7274 103.868 63.5287 103.319 63.5287H103.295ZM51.3506 112.442H42.0932V103.448H51.3506V112.442ZM51.3506 100.214H42.0932V91.2201H51.3506V100.214ZM51.3506 87.9853H42.0932V78.9918H51.3506V87.9853ZM51.3506 75.757H42.0932V66.7635H51.3506V75.757ZM63.9195 112.442H54.6621V103.448H63.9195V112.442ZM63.9195 100.214H54.6621V91.2201H63.9195V100.214ZM63.9195 87.9853H54.6621V78.9918H63.9195V87.9853ZM63.9195 75.757H54.6621V66.7635H63.9195V75.757ZM76.4884 112.442H67.2311V103.448H76.4884V112.442ZM76.4884 100.214H67.2311V91.2201H76.4884V100.214ZM76.4884 87.9853H67.2311V78.9918H76.4884V87.9853ZM76.4884 75.757H67.2311V66.7635H76.4884V75.757ZM89.0574 112.442H79.8V103.448H89.0574V112.442ZM89.0574 100.214H79.8V91.2201H89.0574V100.214ZM89.0574 87.9853H79.8V78.9918H89.0574V87.9853ZM89.0574 75.757H79.8V66.7635H89.0574V75.757ZM101.626 112.442H92.3689V91.2201H101.626V112.442ZM101.626 87.9853H92.3689V78.9918H101.626V87.9853ZM101.626 75.757H92.3689V66.7635H101.626V75.757Z" fill="#FFC800" stroke="black" stroke-width="0.3"/>
<path d="M103.295 20.7299H40.4748C40.0541 20.7299 39.639 20.9349 39.3317 21.2303C39.0247 21.5254 38.8065 21.929 38.8065 22.3473V43.869C38.8065 44.2857 39.0171 44.6893 39.3218 44.9854C39.6269 45.282 40.0423 45.4864 40.4748 45.4864H103.319C103.74 45.4864 104.155 45.2814 104.462 44.986C104.77 44.6909 104.988 44.2873 104.988 43.869V22.3473C104.988 21.9477 104.852 21.5432 104.572 21.2371C104.289 20.9285 103.868 20.7299 103.319 20.7299H103.295ZM101.626 42.0071H42.0932V23.9647H101.626V42.0071Z" fill="#FFC800" stroke="black" stroke-width="0.3"/>
<path d="M129.95 19.2626C123.848 19.2626 118.749 24.2171 118.749 30.1732C118.749 36.1292 123.848 41.0837 129.95 41.0837C136.052 41.0837 141.15 36.1292 141.15 30.1732C141.15 24.2171 136.052 19.2626 129.95 19.2626ZM129.95 37.6045C125.748 37.6045 122.31 34.2441 122.31 30.1732C122.31 26.1022 125.748 22.7419 129.95 22.7419C134.151 22.7419 137.59 26.1022 137.59 30.1732C137.59 34.2472 134.397 37.6045 129.95 37.6045Z" fill="#FFC800" stroke="black" stroke-width="0.3"/>
<path d="M10.5571 92.6322C5.20197 92.6322 0.85 96.8529 0.85 102.075C0.85 107.298 5.20197 111.519 10.5571 111.519C15.9122 111.519 20.2642 107.298 20.2642 102.075C20.2642 96.8529 15.9122 92.6322 10.5571 92.6322ZM10.5571 107.795C7.127 107.795 4.43525 105.168 4.43525 101.831C4.43525 98.4935 7.127 95.8669 10.5571 95.8669C13.9871 95.8669 16.6789 98.4935 16.6789 101.831C16.6789 105.168 13.9871 107.795 10.5571 107.795Z" fill="#FFC800" stroke="black" stroke-width="0.3"/>
<path d="M50.779 4.88847C52.1016 4.88847 53.1938 3.84768 53.1938 2.53745C53.1938 1.22722 52.1016 0.186426 50.779 0.186426C49.4564 0.186426 48.3642 1.22722 48.3642 2.53745C48.3642 3.84768 49.4564 4.88847 50.779 4.88847Z" fill="#FFC800" stroke="black" stroke-width="0.3"/>
<path d="M126.167 7.08928C127.489 7.08928 128.582 6.04849 128.582 4.73826C128.582 3.42802 127.489 2.38723 126.167 2.38723C124.844 2.38723 123.752 3.42802 123.752 4.73826C123.752 6.04849 124.844 7.08928 126.167 7.08928Z" fill="#FFC800" stroke="black" stroke-width="0.3"/>
<path d="M127.685 49.8333C126.362 49.8333 125.27 50.8741 125.27 52.1843C125.27 53.4945 126.362 54.5353 127.685 54.5353C129.007 54.5353 130.1 53.4945 130.1 52.1843C130.1 50.8741 129.007 49.8333 127.685 49.8333Z" fill="#FFC800" stroke="black" stroke-width="0.3"/>
<path d="M126.167 97.2791C124.844 97.2791 123.752 98.3199 123.752 99.6301C123.752 100.94 124.844 101.981 126.167 101.981C127.489 101.981 128.582 100.94 128.582 99.6301C128.582 98.3199 127.489 97.2791 126.167 97.2791Z" fill="#FFC800" stroke="black" stroke-width="0.3"/>
<path d="M99.5353 130.784C98.2128 130.784 97.1205 131.825 97.1205 133.135C97.1205 134.446 98.2128 135.486 99.5353 135.486C100.858 135.486 101.95 134.446 101.95 133.135C101.95 131.825 100.858 130.784 99.5353 130.784Z" fill="#FFC800" stroke="black" stroke-width="0.3"/>
<path d="M6.77459 19.3178C8.09717 19.3178 9.18942 18.277 9.18942 16.9668C9.18942 15.6565 8.09717 14.6157 6.77459 14.6157C5.45201 14.6157 4.35977 15.6565 4.35977 16.9668C4.35977 18.277 5.45201 19.3178 6.77459 19.3178Z" fill="#FFC800" stroke="black" stroke-width="0.3"/>
<path d="M19.343 45.9199C18.0204 45.9199 16.9281 46.9607 16.9281 48.271C16.9281 49.5812 18.0204 50.622 19.343 50.622C20.6655 50.622 21.7578 49.5812 21.7578 48.271C21.7578 46.9607 20.6655 45.9199 19.343 45.9199Z" fill="#FFC800" stroke="black" stroke-width="0.3"/>
<path d="M5.87783 82.7549C5.87783 84.0651 6.97008 85.1059 8.29266 85.1059C9.61524 85.1059 10.7075 84.0651 10.7075 82.7549C10.7075 81.4446 9.61524 80.4038 8.29266 80.4038C6.97008 80.4038 5.87783 81.4446 5.87783 82.7549Z" fill="#FFC800" stroke="black" stroke-width="0.3"/>
<path d="M24.1232 124.67C22.8006 124.67 21.7084 125.711 21.7084 127.021C21.7084 128.331 22.8006 129.372 24.1232 129.372C25.4458 129.372 26.5381 128.331 26.5381 127.021C26.5381 125.711 25.4458 124.67 24.1232 124.67Z" fill="#FFC800" stroke="black" stroke-width="0.3"/>
</svg>
