<svg width="142" height="136" viewBox="0 0 142 136" fill="none" xmlns="http://www.w3.org/2000/svg">
<path d="M52.3912 20.4314L52.3912 20.2814L52.2778 20.2814L52.2469 20.3904L51.5334 22.9023L51.5044 23.0047L51.5914 23.066C52.3382 23.5919 53.347 23.8469 54.5553 23.8469C55.5196 23.8469 56.5129 23.5952 57.0174 23.3323C57.7654 23.0657 58.2649 22.5373 58.5403 22.0089C59.0331 21.0974 59.2116 19.9999 59.2712 18.2071C59.3085 17.0825 59.2991 15.6719 59.2868 13.8481C59.2795 12.7644 59.2713 11.5349 59.2713 10.1327V9.98269H59.1213H56.4815H56.3315V10.1327V18.663C56.2131 19.5331 56.0389 20.0561 55.7708 20.3644C55.5118 20.6624 55.1424 20.7838 54.5553 20.7838C54.0777 20.7838 53.6365 20.7818 53.1733 20.5493C52.927 20.4193 52.7385 20.3523 52.6078 20.3178C52.5424 20.3005 52.4916 20.2914 52.4554 20.2866C52.4373 20.2843 52.4229 20.283 52.4122 20.2822L52.3989 20.2816L52.3943 20.2815L52.3926 20.2814L52.3918 20.2814L52.3915 20.2814H52.3913C52.3913 20.2814 52.3912 20.2814 52.3912 20.4314Z" fill="#FFC800" stroke="black" stroke-width="0.3"/>
<path d="M62.3631 14.0878L62.3574 14.0999L62.3539 14.1128C61.3897 17.6771 62.5878 21.5299 65.7846 23.0777C66.5439 23.4714 67.6558 23.5962 68.6539 23.5645C69.1563 23.5486 69.637 23.4928 70.0395 23.4083C70.4299 23.3264 70.764 23.2141 70.9694 23.0735C74.1484 21.5286 75.6236 17.6853 74.3885 14.3545C73.9004 12.8116 72.6617 11.2726 70.959 10.5004C70.2088 10.1116 69.282 9.92019 68.3637 9.92019C67.4459 9.92019 66.5249 10.1115 65.7862 10.5004C64.0567 11.2738 63.085 12.5627 62.3631 14.0878ZM67.1334 13.2806L67.1426 13.2759L67.151 13.2699C67.806 12.8087 68.954 12.7965 69.8688 13.2781C71.4774 14.2379 71.9503 16.4149 71.4859 18.1319L71.4858 18.1318L71.4847 18.1365C71.2548 19.1078 70.8019 19.82 69.8735 20.2984L69.8643 20.3031L69.8558 20.3091C69.5335 20.5361 69.0269 20.6585 68.5034 20.6585C67.98 20.6585 67.4734 20.5361 67.151 20.3091L67.1432 20.3036L67.1347 20.2991C66.2275 19.82 65.7516 19.1059 65.5222 18.1365L65.5226 18.1364L65.5192 18.1259C65.4097 17.7786 65.4069 17.2395 65.4368 16.7036C65.4502 16.4622 65.4698 16.2271 65.4873 16.0172C65.489 15.9972 65.4906 15.9775 65.4922 15.9581C65.5098 15.7465 65.5248 15.5585 65.5261 15.426C65.7572 14.4631 66.2102 13.7562 67.1334 13.2806Z" fill="#FFC800" stroke="black" stroke-width="0.3"/>
<path d="M87.8071 17.8073C87.4074 17.3852 86.9882 16.9423 86.3976 16.6573C86.6119 16.5377 86.7801 16.392 86.9321 16.2337C87.0303 16.1314 87.1229 16.0226 87.2149 15.9144C87.2253 15.9022 87.2357 15.89 87.2461 15.8778C87.3496 15.7564 87.4549 15.6346 87.5753 15.5134L87.5912 15.4974L87.6017 15.4775C88.2206 14.3008 88.1572 12.9325 87.6616 11.8595C87.1669 10.7884 86.2252 9.98269 85.067 9.98269H77.8613H77.7113V10.1327V23.4457V23.5957H77.8613H84.092C85.1942 23.5957 86.3074 23.3403 87.1501 22.7861C87.9986 22.228 88.5702 21.367 88.5702 20.1802C88.5702 19.1543 88.3275 18.3571 87.8157 17.8164L87.8071 17.8073ZM80.8631 13.0458H83.6164C83.7382 13.0458 83.8377 13.0466 83.9348 13.0722C84.0266 13.0964 84.1211 13.1447 84.2209 13.2501C84.4109 13.4508 84.4176 13.6367 84.4176 14.1517C84.4176 14.5913 84.2183 14.8049 83.9831 15.0533C83.8852 15.1567 83.7935 15.2044 83.6746 15.2295C83.5447 15.2569 83.3843 15.2577 83.1408 15.2577H80.4443L80.8631 13.0458ZM80.6633 20.7838L80.8775 18.0695H84.092C84.1725 18.0695 84.3236 18.1173 84.4976 18.2092C84.6663 18.2983 84.8299 18.4148 84.9343 18.525C85.0216 18.6172 85.0749 18.7685 85.1032 18.9477C85.1308 19.1229 85.1311 19.3003 85.1311 19.4267C85.1311 19.8663 84.9318 20.0798 84.6965 20.3283C84.4591 20.5791 84.2606 20.7838 83.8542 20.7838H80.6633Z" fill="#FFC800" stroke="black" stroke-width="0.3"/>
<path d="M94.718 20.5487L94.704 20.5417L94.6889 20.5377C93.9617 20.3457 93.3689 20.006 92.909 19.7425C92.7897 19.6741 92.6793 19.6108 92.5778 19.5566C92.4467 19.424 92.3141 19.3536 92.2093 19.3167C92.1549 19.2975 92.1084 19.2876 92.0741 19.2824C92.0569 19.2798 92.0427 19.2784 92.0321 19.2776L92.0187 19.2769L92.014 19.2768L92.0123 19.2768L92.0115 19.2768L92.0112 19.2768H92.011C92.0109 19.2768 92.0108 19.2768 92.0108 19.4268V19.2768H91.9121L91.8731 19.3675L90.684 22.1306L90.6334 22.2481L90.7415 22.3166C91.9498 23.0823 93.4189 23.5904 94.8838 23.8443C96.0878 24.0984 97.0855 24.1002 98.0622 23.843C99.2919 23.5821 100.306 22.8009 100.803 21.7517C101.047 21.2355 101.293 20.4598 101.293 19.678C101.293 18.7782 101.11 18.0549 100.699 17.4578C100.288 16.8619 99.6608 16.4076 98.8021 16.0244L98.8021 16.0243L98.7988 16.023C98.1919 15.7691 97.6159 15.579 97.0958 15.4176C96.9519 15.3729 96.8129 15.3306 96.6789 15.2898C96.3257 15.1823 96.0074 15.0854 95.7271 14.9841C95.3397 14.8441 95.0464 14.7026 94.8505 14.5299C94.6621 14.3639 94.5627 14.1683 94.5627 13.9006C94.5627 13.7272 94.5902 13.5947 94.6407 13.4918C94.6901 13.3911 94.7657 13.3103 94.8775 13.2454C95.1105 13.1101 95.4967 13.0459 96.1012 13.0459C96.3419 13.0459 96.5068 13.0463 96.6731 13.0751C96.836 13.1033 97.0061 13.1601 97.2467 13.2811L97.2552 13.2854L97.2642 13.2886C97.3228 13.3092 97.3814 13.3297 97.4398 13.3503C98.089 13.5783 98.7237 13.8011 99.1492 14.0222C99.3186 14.1951 99.5078 14.3018 99.716 14.3018H99.8109L99.8515 14.216L101.041 11.7041L101.092 11.5964L100.998 11.5224C100.028 10.7534 98.7978 10.4938 97.6304 10.2473C97.615 10.244 97.5997 10.2408 97.5843 10.2375C95.3747 9.72517 92.8893 10.4887 91.899 12.5805C91.4045 13.6253 91.4079 14.9184 91.6508 15.9447L91.6504 15.9448L91.6538 15.9553C91.783 16.3649 92.0397 16.6998 92.351 16.9927C92.6611 17.2846 93.0334 17.5421 93.4008 17.7924L93.4006 17.7927L93.4086 17.7974C94.2631 18.3059 95.1693 18.5616 95.9405 18.7792L95.9653 18.7862C96.3566 18.8966 96.7085 18.9966 97.0086 19.115C97.3084 19.2333 97.5426 19.3648 97.7054 19.5308C97.825 19.6574 97.8823 19.7712 97.8972 19.8737C97.4397 20.3557 97.0026 20.7839 96.125 20.7839H96.1012C95.6232 20.7839 95.1816 20.7819 94.718 20.5487Z" fill="#FFC800" stroke="black" stroke-width="0.3"/>
<path d="M7.01666 86.3443C3.57493 86.3443 0.85 89.1803 0.85 92.774C0.85 96.3672 3.55077 99.2037 7.01666 99.2037C10.4833 99.2037 13.1595 96.3664 13.1595 92.774C13.1595 89.1811 10.4591 86.3443 7.01666 86.3443ZM7.01666 95.8894C5.41794 95.8894 4.05131 94.4565 4.05131 92.774C4.05131 91.0922 5.441 89.6585 7.01666 89.6585C8.59231 89.6585 9.982 91.0922 9.982 92.774C9.982 94.4558 8.59231 95.8894 7.01666 95.8894Z" fill="#FFC800" stroke="black" stroke-width="0.3"/>
<path d="M136.37 46.5551C136.37 45.222 135.334 44.1444 134.056 44.1444C132.779 44.1444 131.742 45.222 131.742 46.5551C131.742 47.8883 132.779 48.9658 134.056 48.9658C135.334 48.9658 136.37 47.8883 136.37 46.5551Z" fill="#FFC800" stroke="black" stroke-width="0.3"/>
<path d="M131.804 73.1812C131.804 71.8481 130.767 70.7705 129.49 70.7705C128.212 70.7705 127.176 71.8481 127.176 73.1812C127.176 74.5144 128.212 75.5919 129.49 75.5919C130.767 75.5919 131.804 74.5144 131.804 73.1812Z" fill="#FFC800" stroke="black" stroke-width="0.3"/>
<path d="M8.59293 5.61116C8.59293 4.27801 7.55627 3.20046 6.27884 3.20046C5.00141 3.20046 3.96475 4.27801 3.96475 5.61116C3.96475 6.94432 5.00141 8.02186 6.27884 8.02186C7.55627 8.02186 8.59293 6.94432 8.59293 5.61116Z" fill="#FFC800" stroke="black" stroke-width="0.3"/>
<path d="M17.7253 27.7159C17.7253 26.3827 16.6886 25.3052 15.4112 25.3052C14.1337 25.3052 13.0971 26.3827 13.0971 27.7159C13.0971 29.0491 14.1337 30.1266 15.4112 30.1266C16.6886 30.1266 17.7253 29.0491 17.7253 27.7159Z" fill="#FFC800" stroke="black" stroke-width="0.3"/>
<path d="M8.59293 123.419C8.59293 122.086 7.55627 121.008 6.27884 121.008C5.00141 121.008 3.96475 122.086 3.96475 123.419C3.96475 124.752 5.00141 125.83 6.27884 125.83C7.55627 125.83 8.59293 124.752 8.59293 123.419Z" fill="#FFC800" stroke="black" stroke-width="0.3"/>
<path d="M131.654 27.1124C135.096 27.1124 137.821 24.2763 137.821 20.6827C137.821 17.0894 135.12 14.253 131.654 14.253C128.187 14.253 125.511 17.0902 125.511 20.6827C125.511 24.0203 128.208 27.1124 131.654 27.1124ZM131.654 17.5672C133.253 17.5672 134.619 19.0001 134.619 20.6827C134.619 22.3645 133.23 23.7981 131.654 23.7981C130.081 23.7981 128.694 22.3702 128.689 20.6927C128.924 18.9808 130.096 17.5672 131.654 17.5672Z" fill="#FFC800" stroke="black" stroke-width="0.3"/>
<path d="M46.1596 39.6721H58.1692C58.5771 39.6721 58.9764 39.4586 59.2698 39.1554C59.5638 38.8517 59.7698 38.4393 59.7698 38.0149C59.7698 37.5921 59.5709 37.1797 59.2793 36.8751C58.9879 36.5706 58.5883 36.3578 58.1692 36.3578H46.1596C45.7517 36.3578 45.3524 36.5713 45.059 36.8745C44.7651 37.1782 44.559 37.5906 44.559 38.0149C44.559 38.4216 44.6871 38.8346 44.9545 39.1484C45.2247 39.4655 45.6297 39.6721 46.1596 39.6721Z" fill="#FFC800" stroke="black" stroke-width="0.3"/>
<path d="M85.0663 42.3861H63.9248C63.5169 42.3861 63.1176 42.5996 62.8241 42.9028C62.5302 43.2065 62.3241 43.619 62.3241 44.0433C62.3241 44.4661 62.523 44.8785 62.8146 45.1831C63.1061 45.4876 63.5057 45.7004 63.9248 45.7004H85.0663C85.4742 45.7004 85.8735 45.4869 86.167 45.1837C86.4556 44.8855 86.6595 44.4824 86.6668 44.0663C86.7933 43.6363 86.6515 43.2133 86.3548 42.9034C86.054 42.5892 85.5918 42.3861 85.0663 42.3861Z" fill="#FFC800" stroke="black" stroke-width="0.3"/>
<path d="M46.1628 48.6657L46.1628 48.6656H46.1596C45.7517 48.6656 45.3524 48.8791 45.059 49.1823C44.7651 49.486 44.559 49.8985 44.559 50.3228C44.559 50.7456 44.7579 51.158 45.0495 51.4627C45.3409 51.7671 45.7405 51.9799 46.1596 51.9799H57.3442C58.3614 55.2681 61.7897 57.5054 66.8029 58.0069C68.0281 58.2596 69.2283 58.2596 70.6689 58.2596H70.6781H85.3274C85.7353 58.2596 86.1346 58.0462 86.428 57.743C86.7219 57.4392 86.928 57.0268 86.928 56.6025C86.928 56.1797 86.7291 55.7673 86.4375 55.4626C86.2267 55.2424 85.9592 55.0701 85.6688 54.9916C87.6454 54.0719 89.6154 53.1312 91.3885 51.9799H112.723C113.131 51.9799 113.531 51.7664 113.824 51.4632C114.118 51.1595 114.324 50.7471 114.324 50.3228C114.324 49.8999 114.125 49.4875 113.834 49.1829C113.542 48.8785 113.142 48.6656 112.723 48.6656H96.0211C96.8804 47.7599 97.7617 46.8309 98.6241 45.7002H112.723C113.131 45.7002 113.531 45.4867 113.824 45.1835C114.118 44.8798 114.324 44.4674 114.324 44.0431C114.324 43.6202 114.125 43.2078 113.834 42.9032C113.542 42.5987 113.142 42.3859 112.723 42.3859H100.709C101.112 41.4713 101.321 40.5416 101.338 39.4205H112.723C113.131 39.4205 113.531 39.207 113.824 38.9038C114.118 38.6001 114.324 38.1876 114.324 37.7633C114.324 37.3405 114.125 36.9281 113.834 36.6235C113.542 36.319 113.142 36.1062 112.723 36.1062H100.576C99.8129 34.3379 97.8759 32.8403 95.7475 31.6051L95.7407 31.6011L95.7336 31.5979C90.6427 29.3152 83.8678 29.8273 77.5858 33.1042C77.1769 33.2526 76.9166 33.6106 76.7895 34.0132C76.6614 34.4193 76.6614 34.8904 76.7895 35.2966C76.9258 35.7282 77.2653 36.0092 77.659 36.1466C78.0511 36.2835 78.5077 36.2831 78.9072 36.147L78.9169 36.1437L78.926 36.1391C84.4154 33.39 90.1428 32.9011 94.3926 34.8834C95.1627 35.2903 95.7915 35.6974 96.3842 36.1062H91.8196C91.4117 36.1062 91.0124 36.3197 90.719 36.6229C90.4251 36.9266 90.219 37.339 90.219 37.7633C90.219 38.1862 90.4179 38.5986 90.7095 38.9032C91.0009 39.2077 91.4005 39.4205 91.8196 39.4205H98.1583C98.1376 39.8511 98.0302 40.2893 97.8724 40.7615C97.7564 41.1086 97.616 41.4666 97.4654 41.8506C97.3976 42.0233 97.3278 42.2013 97.2573 42.3859H92.0812C91.6733 42.3859 91.274 42.5994 90.9806 42.9026C90.6866 43.2063 90.4806 43.6187 90.4806 44.0431C90.4806 44.4659 90.6795 44.8783 90.9711 45.1829C91.2625 45.4874 91.6621 45.7002 92.0812 45.7002H94.6021C92.7755 47.5284 90.3531 49.1471 87.707 50.5543C87.7709 49.5768 87.049 48.6656 86.0646 48.6656H64.923C64.5151 48.6656 64.1158 48.8791 63.8224 49.1823C63.5285 49.486 63.3224 49.8985 63.3224 50.3228C63.3224 50.7456 63.5213 51.158 63.8129 51.4627C64.1043 51.7671 64.504 51.9799 64.923 51.9799H84.371C79.4476 54.0714 73.3032 55.4119 68.0587 54.6956L68.0578 54.6954C64.2267 54.1959 61.9007 52.7057 61.2138 50.7804C60.9877 49.9373 61.041 48.4626 61.5158 46.6559C61.9894 44.8536 62.8782 42.7378 64.3035 40.6202C64.4295 40.4842 64.5517 40.2906 64.6637 40.1132L64.6694 40.1041C64.7753 39.9363 64.8727 39.7829 64.9665 39.6717H86.0408C86.4487 39.6717 86.848 39.4582 87.1414 39.155C87.4354 38.8513 87.6415 38.4388 87.6415 38.0145C87.6415 37.5917 87.4426 37.1793 87.1509 36.8746C86.8595 36.5702 86.4599 36.3574 86.0408 36.3574H67.6315C69.7713 33.9453 72.7925 31.5755 76.715 30.3711L76.715 30.3712L76.7208 30.3692C77.1253 30.2268 77.4486 29.8776 77.6389 29.4755C77.8295 29.0728 77.8981 28.5938 77.7653 28.173C77.6322 27.7514 77.3037 27.4092 76.916 27.2061C76.5284 27.0031 76.0634 26.9298 75.6476 27.0714L75.6466 27.0718C68.4327 29.5865 62.4357 35.8481 59.5034 42.8701C59.4553 42.8529 59.4045 42.8246 59.3554 42.7901C59.317 42.763 59.2847 42.7357 59.262 42.7152C59.2507 42.705 59.242 42.6966 59.2364 42.6911L59.2304 42.685L59.2294 42.684L59.2293 42.6839L59.2293 42.6839L59.2292 42.6838L59.2292 42.6838L59.2291 42.6837L59.185 42.6371H59.1204H47.1109C46.703 42.6371 46.3037 42.8506 46.0102 43.1538C45.7163 43.4575 45.5102 43.8699 45.5102 44.2942C45.5102 44.7171 45.7091 45.1295 46.0008 45.4341C46.2922 45.7386 46.6918 45.9514 47.1109 45.9514H58.4558C58.2441 46.8745 58.0416 47.982 58.0209 48.9137L46.1628 48.6657Z" fill="#FFC800" stroke="black" stroke-width="0.3"/>
<path d="M46.1596 58.5111H58.1692C58.5771 58.5111 58.9764 58.2976 59.2698 57.9944C59.5638 57.6907 59.7698 57.2782 59.7698 56.8539C59.7698 56.4311 59.5709 56.0187 59.2793 55.7141C58.9879 55.4096 58.5883 55.1968 58.1692 55.1968H46.1596C45.7517 55.1968 45.3524 55.4103 45.059 55.7135C44.7651 56.0172 44.559 56.4296 44.559 56.8539C44.559 57.2606 44.6871 57.6735 44.9545 57.9874C45.2247 58.3045 45.6297 58.5111 46.1596 58.5111Z" fill="#FFC800" stroke="black" stroke-width="0.3"/>
<path d="M112.202 54.9456H91.06C90.6521 54.9456 90.2528 55.159 89.9594 55.4622C89.6654 55.766 89.4594 56.1784 89.4594 56.6027C89.4594 57.0256 89.6583 57.4379 89.9499 57.7426C90.2413 58.047 90.6409 58.2598 91.06 58.2598H112.202C112.609 58.2598 113.009 58.0464 113.302 57.7432C113.596 57.4395 113.802 57.027 113.802 56.6027C113.802 56.1799 113.603 55.7675 113.312 55.4628C113.02 55.1584 112.621 54.9456 112.202 54.9456Z" fill="#FFC800" stroke="black" stroke-width="0.3"/>
<path d="M46.1596 64.7909H58.1692C58.5771 64.7909 58.9764 64.5774 59.2698 64.2742C59.5638 63.9705 59.7698 63.558 59.7698 63.1337C59.7698 62.7109 59.5709 62.2985 59.2793 61.9938C58.9879 61.6894 58.5883 61.4766 58.1692 61.4766H46.1596C45.7517 61.4766 45.3524 61.69 45.059 61.9933C44.7651 62.297 44.559 62.7094 44.559 63.1337C44.559 63.5404 44.6871 63.9533 44.9545 64.2672C45.2247 64.5843 45.6297 64.7909 46.1596 64.7909Z" fill="#FFC800" stroke="black" stroke-width="0.3"/>
<path d="M85.0663 61.2252H63.9248C63.5169 61.2252 63.1176 61.4387 62.8241 61.7419C62.5302 62.0456 62.3241 62.4581 62.3241 62.8824C62.3241 63.3052 62.523 63.7176 62.8146 64.0223C63.1061 64.3267 63.5057 64.5395 63.9248 64.5395H85.0663C85.4742 64.5395 85.8735 64.326 86.167 64.0228C86.4556 63.7246 86.6595 63.3216 86.6668 62.9054C86.7933 62.4754 86.6515 62.0524 86.3548 61.7425C86.054 61.4283 85.5918 61.2252 85.0663 61.2252Z" fill="#FFC800" stroke="black" stroke-width="0.3"/>
<path d="M112.202 61.2252H91.06C90.6521 61.2252 90.2528 61.4387 89.9594 61.7419C89.6654 62.0456 89.4594 62.4581 89.4594 62.8824C89.4594 63.3052 89.6583 63.7176 89.9499 64.0223C90.2413 64.3267 90.6409 64.5395 91.06 64.5395H112.202C112.609 64.5395 113.009 64.326 113.302 64.0228C113.596 63.7191 113.802 63.3067 113.802 62.8824C113.802 62.4595 113.603 62.0471 113.312 61.7425C113.02 61.4381 112.621 61.2252 112.202 61.2252Z" fill="#FFC800" stroke="black" stroke-width="0.3"/>
<path d="M46.1596 71.0705H58.1692C58.5771 71.0705 58.9764 70.857 59.2698 70.5538C59.5638 70.2501 59.7698 69.8377 59.7698 69.4134C59.7698 68.9949 59.5746 68.5236 59.289 68.1591C59.0057 67.7973 58.6043 67.505 58.1692 67.505H46.1596C45.7517 67.505 45.3524 67.7185 45.059 68.0217C44.7651 68.3254 44.559 68.7379 44.559 69.1622C44.559 69.5666 44.6857 70.0368 44.9456 70.4097C45.2081 70.7862 45.613 71.0705 46.1596 71.0705Z" fill="#FFC800" stroke="black" stroke-width="0.3"/>
<path d="M85.0663 67.505H63.9248C63.5169 67.505 63.1176 67.7185 62.8241 68.0217C62.5302 68.3254 62.3241 68.7379 62.3241 69.1622C62.3241 69.585 62.523 69.9974 62.8146 70.302C63.1061 70.6065 63.5057 70.8193 63.9248 70.8193H85.0663C85.4742 70.8193 85.8735 70.6058 86.167 70.3026C86.4609 69.9989 86.667 69.5865 86.667 69.1622C86.667 68.7555 86.5388 68.3426 86.2714 68.0287C86.0012 67.7116 85.5963 67.505 85.0663 67.505Z" fill="#FFC800" stroke="black" stroke-width="0.3"/>
<path d="M112.202 67.505H91.06C90.6521 67.505 90.2528 67.7185 89.9594 68.0217C89.6654 68.3254 89.4594 68.7379 89.4594 69.1622C89.4594 69.585 89.6583 69.9974 89.9499 70.302C90.2413 70.6065 90.6409 70.8193 91.06 70.8193H112.202C112.609 70.8193 113.009 70.6058 113.302 70.3026C113.596 69.9989 113.802 69.5865 113.802 69.1622C113.802 68.7393 113.603 68.3269 113.312 68.0223C113.02 67.7178 112.621 67.505 112.202 67.505Z" fill="#FFC800" stroke="black" stroke-width="0.3"/>
<path d="M46.1596 77.3501H58.1692C58.5771 77.3501 58.9764 77.1366 59.2698 76.8334C59.5638 76.5297 59.7698 76.1172 59.7698 75.6929C59.7698 75.2701 59.5709 74.8577 59.2793 74.553C58.9879 74.2486 58.5883 74.0358 58.1692 74.0358H46.1596C45.7517 74.0358 45.3524 74.2493 45.059 74.5525C44.7651 74.8562 44.559 75.2686 44.559 75.6929C44.559 76.0996 44.6871 76.5125 44.9545 76.8264C45.2247 77.1435 45.6297 77.3501 46.1596 77.3501Z" fill="#FFC800" stroke="black" stroke-width="0.3"/>
<path d="M85.0663 73.7844H63.9248C63.5169 73.7844 63.1176 73.9979 62.8241 74.3011C62.5302 74.6048 62.3241 75.0173 62.3241 75.4416C62.3241 75.8644 62.523 76.2768 62.8146 76.5815C63.1061 76.8859 63.5057 77.0987 63.9248 77.0987H85.0663C85.4742 77.0987 85.8735 76.8853 86.167 76.5821C86.4609 76.2783 86.667 75.8659 86.667 75.4416C86.667 75.0349 86.5388 74.622 86.2714 74.3081C86.0012 73.991 85.5963 73.7844 85.0663 73.7844Z" fill="#FFC800" stroke="black" stroke-width="0.3"/>
<path d="M112.202 73.7844H91.06C90.6521 73.7844 90.2528 73.9979 89.9594 74.3011C89.6654 74.6048 89.4594 75.0173 89.4594 75.4416C89.4594 75.8644 89.6583 76.2768 89.9499 76.5815C90.2413 76.8859 90.6409 77.0987 91.06 77.0987H112.202C112.609 77.0987 113.009 76.8853 113.302 76.5821C113.596 76.2783 113.802 75.8659 113.802 75.4416C113.802 75.0187 113.603 74.6064 113.312 74.3017C113.02 73.9973 112.621 73.7844 112.202 73.7844Z" fill="#FFC800" stroke="black" stroke-width="0.3"/>
<path d="M46.1596 83.6299H58.1692C58.5771 83.6299 58.9764 83.4165 59.2698 83.1133C59.5638 82.8096 59.7698 82.3971 59.7698 81.9728C59.7698 81.5543 59.5746 81.0831 59.289 80.7186C59.0057 80.3567 58.6043 80.0645 58.1692 80.0645H46.1596C45.7517 80.0645 45.3524 80.2779 45.059 80.5811C44.7651 80.8849 44.559 81.2973 44.559 81.7216C44.559 82.1261 44.6857 82.5962 44.9456 82.9691C45.2081 83.3457 45.613 83.6299 46.1596 83.6299Z" fill="#FFC800" stroke="black" stroke-width="0.3"/>
<path d="M85.0663 80.0645H63.9248C63.5169 80.0645 63.1176 80.2779 62.8241 80.5811C62.5302 80.8849 62.3241 81.2973 62.3241 81.7216C62.3241 82.1445 62.523 82.5568 62.8146 82.8615C63.1061 83.1659 63.5057 83.3787 63.9248 83.3787H85.0663C85.4742 83.3787 85.8735 83.1653 86.167 82.8621C86.4609 82.5584 86.667 82.1459 86.667 81.7216C86.667 81.315 86.5388 80.902 86.2714 80.5882C86.0012 80.271 85.5963 80.0645 85.0663 80.0645Z" fill="#FFC800" stroke="black" stroke-width="0.3"/>
<path d="M112.202 80.0645H91.06C90.6521 80.0645 90.2528 80.2779 89.9594 80.5811C89.6654 80.8849 89.4594 81.2973 89.4594 81.7216C89.4594 82.1445 89.6583 82.5568 89.9499 82.8615C90.2413 83.1659 90.6409 83.3787 91.06 83.3787H112.202C112.609 83.3787 113.009 83.1653 113.302 82.8621C113.596 82.5584 113.802 82.1459 113.802 81.7216C113.802 81.2988 113.603 80.8864 113.312 80.5817C113.02 80.2773 112.621 80.0645 112.202 80.0645Z" fill="#FFC800" stroke="black" stroke-width="0.3"/>
<path d="M46.1596 89.9097H58.1692C58.5771 89.9097 58.9764 89.6963 59.2698 89.3931C59.5638 89.0894 59.7698 88.6769 59.7698 88.2526C59.7698 87.8298 59.5709 87.4174 59.2793 87.1127C58.9879 86.8083 58.5883 86.5955 58.1692 86.5955H46.1596C45.7517 86.5955 45.3524 86.8089 45.059 87.1121C44.7651 87.4159 44.559 87.8283 44.559 88.2526C44.559 88.6593 44.6871 89.0722 44.9545 89.386C45.2247 89.7032 45.6297 89.9097 46.1596 89.9097Z" fill="#FFC800" stroke="black" stroke-width="0.3"/>
<path d="M85.0663 86.3443H63.9248C63.5169 86.3443 63.1176 86.5577 62.8241 86.8609C62.5302 87.1646 62.3241 87.5771 62.3241 88.0014C62.3241 88.4242 62.523 88.8366 62.8146 89.1413C63.1061 89.4457 63.5057 89.6585 63.9248 89.6585H85.0663C85.4742 89.6585 85.8735 89.4451 86.167 89.1419C86.4609 88.8382 86.667 88.4257 86.667 88.0014C86.667 87.5948 86.5388 87.1818 86.2714 86.868C86.0012 86.5508 85.5963 86.3443 85.0663 86.3443Z" fill="#FFC800" stroke="black" stroke-width="0.3"/>
<path d="M112.202 86.3443H91.06C90.6521 86.3443 90.2528 86.5577 89.9594 86.8609C89.6654 87.1646 89.4594 87.5771 89.4594 88.0014C89.4594 88.4242 89.6583 88.8366 89.9499 89.1413C90.2413 89.4457 90.6409 89.6585 91.06 89.6585H112.202C112.609 89.6585 113.009 89.4451 113.302 89.1419C113.596 88.8382 113.802 88.4257 113.802 88.0014C113.802 87.5786 113.603 87.1662 113.312 86.8615C113.02 86.5571 112.621 86.3443 112.202 86.3443Z" fill="#FFC800" stroke="black" stroke-width="0.3"/>
<path d="M59.7474 94.2811C59.7474 93.8582 59.5485 93.4458 59.2568 93.1412C58.9654 92.8367 58.5658 92.6239 58.1467 92.6239H46.1372C45.7293 92.6239 45.33 92.8374 45.0365 93.1406C44.7426 93.4443 44.5365 93.8568 44.5365 94.2811C44.5365 94.7039 44.7354 95.1163 45.027 95.4209C45.3185 95.7254 45.7181 95.9382 46.1372 95.9382H58.1221C58.5385 96.0731 58.9496 95.9175 59.2474 95.6099C59.5503 95.2969 59.7474 94.8188 59.7474 94.2811Z" fill="#FFC800" stroke="black" stroke-width="0.3"/>
<path d="M85.0663 92.6239H63.9248C63.5169 92.6239 63.1176 92.8374 62.8241 93.1406C62.5302 93.4443 62.3241 93.8568 62.3241 94.2811C62.3241 94.7039 62.523 95.1163 62.8146 95.4209C63.1061 95.7254 63.5057 95.9382 63.9248 95.9382H85.0663C85.4742 95.9382 85.8735 95.7247 86.167 95.4215C86.4609 95.1178 86.667 94.7054 86.667 94.2811C86.667 93.8744 86.5388 93.4615 86.2714 93.1476C86.0012 92.8305 85.5963 92.6239 85.0663 92.6239Z" fill="#FFC800" stroke="black" stroke-width="0.3"/>
<path d="M112.202 92.6239H91.06C90.6521 92.6239 90.2528 92.8374 89.9594 93.1406C89.6654 93.4443 89.4594 93.8568 89.4594 94.2811C89.4594 94.7039 89.6583 95.1163 89.9499 95.4209C90.2413 95.7254 90.6409 95.9382 91.06 95.9382H112.202C112.609 95.9382 113.009 95.7247 113.302 95.4215C113.596 95.1178 113.802 94.7054 113.802 94.2811C113.802 93.8582 113.603 93.4458 113.312 93.1412C113.02 92.8367 112.621 92.6239 112.202 92.6239Z" fill="#FFC800" stroke="black" stroke-width="0.3"/>
<path d="M123.148 119.55V121.158C123.148 129.022 117.07 135.375 109.538 135.375C68.7053 135.375 49.187 135.438 39.8173 135.469L39.2547 135.471C34.9593 135.485 32.9426 135.492 31.9762 135.481C31.4767 135.475 31.2466 135.464 31.1264 135.445C31.0615 135.435 31.0155 135.42 30.9737 135.395C30.9664 135.39 30.9591 135.385 30.9528 135.381C25.3591 136.111 20.7548 131.517 20.7548 125.931V39.5219C20.7548 39.0976 20.9609 38.6851 21.2548 38.3814C21.5482 38.0782 21.9475 37.8647 22.3554 37.8647H35.6656V1.84356C35.6656 1.41925 35.8717 1.0068 36.1656 0.703089C36.4591 0.399887 36.8584 0.186426 37.2663 0.186426H121.095C121.514 0.186426 121.914 0.399241 122.205 0.703679C122.497 1.00833 122.696 1.42072 122.696 1.84356V103.676H133.081L123.148 119.55ZM123.148 119.55H133.557C137.736 119.55 141.15 115.96 141.15 111.613H141.15L141.15 111.605C140.909 107.271 137.509 103.689 133.105 103.676L123.148 119.55ZM54.2481 113.238L54.2559 113.244L54.2645 113.249L64.8061 119.519C64.9395 119.654 65.0778 119.728 65.2185 119.765C65.3564 119.801 65.4919 119.801 65.6065 119.801H65.6135H119.495V121.158V121.308H119.517C119.442 127.189 114.965 131.809 109.347 131.809H36.6287C37.9845 130.089 38.8669 128.118 38.8669 125.68V3.2495H119.495V103.425H65.6135H65.6065C65.4919 103.425 65.3564 103.425 65.2185 103.461C65.0774 103.499 64.9388 103.572 64.8052 103.709L54.2665 110.227C53.7342 110.51 53.4778 111.07 53.4778 111.644C53.4778 112.221 53.7341 112.831 54.2481 113.238ZM74.8955 116.236V113.27H124.061V116.236H74.8955ZM66.1309 116.236L58.4606 111.613L66.1309 106.99H71.4564V116.236H66.1309ZM124.061 109.956H74.8955V106.99H124.061V109.956ZM23.9799 125.68V41.179H35.6894V125.931C35.6894 129.369 33.1137 132.057 29.8285 132.061C26.5561 131.813 23.9799 129.116 23.9799 125.68ZM133.129 116.236H127.262V106.99H133.129C135.446 106.99 137.545 108.932 137.545 111.613C137.545 114.3 135.679 116.236 133.129 116.236Z" fill="#FFC800" stroke="black" stroke-width="0.3"/>
</svg>
