<?xml version="1.0" encoding="UTF-8"?>
<svg xmlns="http://www.w3.org/2000/svg" xmlns:xlink="http://www.w3.org/1999/xlink" width="140px" height="135px" viewBox="0 0 140 135" version="1.1">
<g id="surface1">
<path style=" stroke:none;fill-rule:nonzero;fill:rgb(100%,78.431374%,0%);fill-opacity:1;" d="M 53.140625 23.824219 C 51.957031 23.824219 50.972656 23.527344 50.183594 23.03125 L 50.085938 22.929688 L 50.875 20.25 L 50.972656 20.25 C 50.972656 20.25 51.269531 20.25 51.761719 20.546875 C 52.15625 20.746094 52.648438 20.746094 53.140625 20.746094 C 54.125 20.746094 54.621094 20.449219 54.914062 18.660156 L 54.914062 10.027344 L 57.773438 10.027344 L 57.773438 10.125 C 57.773438 11.515625 57.773438 12.804688 57.773438 13.796875 C 57.773438 18.464844 57.773438 20.449219 56.984375 21.9375 C 56.691406 22.53125 56.195312 23.03125 55.507812 23.226562 C 55.113281 23.527344 54.125 23.824219 53.140625 23.824219 Z M 53.140625 23.824219 "/>
<path style=" stroke:none;fill-rule:nonzero;fill:rgb(11.372549%,11.372549%,10.588235%);fill-opacity:1;" d="M 57.675781 10.222656 C 57.675781 17.667969 57.875 20.25 56.984375 21.9375 C 56.789062 22.433594 56.296875 22.929688 55.605469 23.226562 C 55.113281 23.527344 54.226562 23.722656 53.238281 23.722656 C 52.054688 23.722656 51.070312 23.425781 50.378906 22.929688 L 51.070312 20.449219 C 51.070312 20.449219 51.269531 20.449219 51.761719 20.746094 C 52.253906 21.042969 52.746094 21.042969 53.140625 21.042969 C 54.324219 21.042969 54.816406 20.546875 55.015625 18.761719 C 55.015625 17.46875 55.015625 16.476562 55.015625 10.222656 L 57.675781 10.222656 M 57.972656 9.925781 L 54.816406 9.925781 L 54.816406 18.761719 C 54.621094 20.449219 54.125 20.746094 53.238281 20.746094 C 52.746094 20.746094 52.351562 20.746094 51.957031 20.546875 C 51.464844 20.25 51.167969 20.25 51.070312 20.25 L 50.875 20.25 L 50.773438 20.449219 L 50.085938 22.832031 L 49.984375 23.03125 L 50.183594 23.128906 C 50.972656 23.625 51.957031 23.921875 53.238281 23.921875 C 54.226562 23.921875 55.308594 23.625 55.703125 23.425781 C 56.394531 23.226562 56.984375 22.730469 57.28125 22.035156 C 58.070312 20.546875 58.070312 18.5625 58.070312 13.898438 C 58.070312 12.804688 58.070312 11.613281 58.070312 10.222656 L 58.070312 9.925781 Z M 57.972656 9.925781 "/>
<path style=" stroke:none;fill-rule:nonzero;fill:rgb(100%,78.431374%,0%);fill-opacity:1;" d="M 66.746094 23.527344 C 65.761719 23.527344 64.773438 23.328125 64.183594 23.03125 C 61.125 21.539062 59.746094 17.867188 60.832031 14.09375 C 61.71875 12.308594 62.703125 11.21875 64.183594 10.523438 C 64.875 10.125 65.761719 9.925781 66.746094 9.925781 C 67.730469 9.925781 68.621094 10.125 69.308594 10.523438 C 70.886719 11.21875 72.167969 12.707031 72.660156 14.394531 C 73.84375 17.769531 72.367188 21.539062 69.308594 23.03125 C 68.914062 23.328125 67.832031 23.527344 66.746094 23.527344 Z M 66.84375 13.003906 C 66.351562 13.003906 65.957031 13.101562 65.5625 13.402344 C 64.675781 13.898438 64.183594 14.492188 63.984375 15.585938 C 63.984375 15.683594 63.984375 15.882812 63.984375 16.179688 C 63.886719 16.777344 63.886719 17.769531 63.984375 18.265625 C 64.28125 19.355469 64.675781 19.953125 65.5625 20.449219 C 65.859375 20.648438 66.351562 20.84375 66.945312 20.84375 C 67.4375 20.84375 67.929688 20.746094 68.324219 20.449219 C 69.210938 19.953125 69.703125 19.355469 69.902344 18.265625 C 70.394531 16.578125 69.902344 14.394531 68.324219 13.402344 C 67.832031 13.101562 67.339844 13.003906 66.84375 13.003906 Z M 66.84375 13.003906 "/>
<path style=" stroke:none;fill-rule:nonzero;fill:rgb(11.372549%,11.372549%,10.588235%);fill-opacity:1;" d="M 66.746094 10.125 C 67.632812 10.125 68.519531 10.324219 69.210938 10.71875 C 70.886719 11.515625 72.070312 13.003906 72.5625 14.492188 C 73.746094 17.769531 72.367188 21.441406 69.210938 23.03125 C 68.816406 23.328125 67.832031 23.527344 66.746094 23.527344 C 65.859375 23.527344 64.875 23.425781 64.28125 23.03125 C 61.226562 21.539062 60.042969 17.769531 60.929688 14.292969 C 61.621094 12.804688 62.605469 11.515625 64.28125 10.820312 C 64.972656 10.324219 65.859375 10.125 66.746094 10.125 M 66.84375 20.84375 C 67.339844 20.84375 67.929688 20.746094 68.226562 20.449219 C 69.210938 19.953125 69.605469 19.15625 69.902344 18.164062 C 70.394531 16.378906 69.902344 14.195312 68.226562 13.203125 C 67.730469 12.90625 67.238281 12.804688 66.746094 12.804688 C 66.253906 12.804688 65.761719 12.90625 65.464844 13.203125 C 64.480469 13.699219 64.085938 14.492188 63.789062 15.484375 C 63.789062 15.980469 63.589844 17.46875 63.789062 18.265625 C 63.984375 19.257812 64.480469 20.050781 65.464844 20.546875 C 65.859375 20.648438 66.351562 20.84375 66.84375 20.84375 M 66.746094 9.828125 C 65.761719 9.828125 64.875 10.027344 64.085938 10.421875 C 62.605469 11.117188 61.519531 12.210938 60.632812 14.09375 C 59.550781 17.96875 61.027344 21.640625 64.085938 23.128906 C 64.875 23.527344 66.054688 23.625 66.648438 23.625 C 67.632812 23.625 68.816406 23.425781 69.308594 23.128906 C 72.464844 21.640625 73.945312 17.667969 72.761719 14.292969 C 72.269531 12.605469 70.886719 11.117188 69.308594 10.421875 C 68.621094 10.027344 67.730469 9.828125 66.746094 9.828125 Z M 64.085938 15.484375 C 64.28125 14.492188 64.773438 13.898438 65.5625 13.5 C 65.859375 13.300781 66.253906 13.203125 66.746094 13.203125 C 67.238281 13.203125 67.730469 13.300781 68.125 13.5 C 69.703125 14.394531 70.097656 16.578125 69.605469 18.164062 C 69.410156 19.15625 68.914062 19.851562 68.125 20.25 C 67.832031 20.449219 67.339844 20.546875 66.84375 20.546875 C 66.351562 20.546875 65.859375 20.449219 65.5625 20.25 C 64.675781 19.851562 64.28125 19.15625 63.984375 18.164062 C 63.789062 17.667969 63.886719 16.675781 63.984375 16.082031 C 64.085938 15.78125 64.085938 15.585938 64.085938 15.484375 Z M 64.085938 15.484375 "/>
<path style=" stroke:none;fill-rule:nonzero;fill:rgb(100%,78.431374%,0%);fill-opacity:1;" d="M 76.015625 23.625 L 76.015625 10.027344 L 83.308594 10.027344 C 84.195312 10.027344 85.085938 10.523438 85.675781 11.515625 C 86.367188 12.707031 86.464844 14.292969 85.773438 15.484375 C 85.675781 15.683594 85.578125 15.78125 85.480469 15.882812 C 85.28125 16.179688 84.984375 16.476562 84.691406 16.675781 C 85.28125 16.972656 85.675781 17.371094 86.070312 17.867188 C 86.5625 18.363281 86.859375 19.15625 86.859375 20.25 C 86.859375 22.632812 84.691406 23.625 82.421875 23.625 Z M 82.027344 20.746094 C 82.421875 20.746094 82.621094 20.546875 82.816406 20.25 C 83.015625 19.953125 83.210938 19.753906 83.210938 19.355469 C 83.210938 19.15625 83.210938 18.660156 83.015625 18.464844 C 82.816406 18.265625 82.324219 17.96875 82.125 17.96875 L 78.972656 17.96875 L 78.875 20.746094 Z M 81.339844 15.285156 C 81.832031 15.285156 82.027344 15.285156 82.125 15.089844 C 82.324219 14.890625 82.519531 14.59375 82.519531 14.195312 C 82.519531 13.699219 82.519531 13.5 82.324219 13.300781 C 82.125 13.101562 81.929688 13.101562 81.730469 13.101562 L 78.972656 13.101562 L 78.578125 15.285156 Z M 81.339844 15.285156 "/>
<path style=" stroke:none;fill-rule:nonzero;fill:rgb(11.372549%,11.372549%,10.588235%);fill-opacity:1;" d="M 83.210938 10.222656 C 85.378906 10.222656 86.761719 13.203125 85.578125 15.484375 C 85.085938 15.980469 84.886719 16.476562 84.195312 16.777344 C 84.886719 17.074219 85.378906 17.570312 85.875 18.066406 C 86.367188 18.5625 86.5625 19.355469 86.5625 20.347656 C 86.5625 22.632812 84.394531 23.625 82.324219 23.625 L 76.210938 23.625 L 76.210938 10.222656 L 83.210938 10.222656 M 78.480469 15.484375 L 81.339844 15.484375 C 81.832031 15.484375 82.027344 15.484375 82.324219 15.1875 C 82.519531 14.890625 82.816406 14.691406 82.816406 14.195312 C 82.816406 13.699219 82.816406 13.402344 82.621094 13.203125 C 82.324219 12.90625 82.027344 12.90625 81.832031 12.90625 L 78.972656 12.90625 L 78.480469 15.484375 M 78.773438 20.945312 L 82.125 20.945312 C 82.621094 20.945312 82.816406 20.648438 83.113281 20.449219 C 83.308594 20.152344 83.605469 19.953125 83.605469 19.457031 C 83.605469 19.15625 83.605469 18.660156 83.410156 18.464844 C 83.210938 18.164062 82.71875 17.96875 82.421875 17.96875 L 79.070312 17.96875 L 78.773438 20.945312 M 83.210938 9.925781 L 75.816406 9.925781 L 75.816406 23.722656 L 82.226562 23.722656 C 84.492188 23.722656 86.761719 22.632812 86.761719 20.152344 C 86.761719 19.058594 86.464844 18.265625 85.972656 17.667969 C 85.578125 17.273438 85.28125 16.875 84.789062 16.578125 C 85.085938 16.378906 85.28125 16.179688 85.480469 15.882812 C 85.578125 15.78125 85.675781 15.683594 85.773438 15.484375 C 86.464844 14.195312 86.367188 12.605469 85.675781 11.414062 C 85.085938 10.421875 84.195312 9.925781 83.210938 9.925781 Z M 79.167969 13.203125 L 81.832031 13.203125 C 82.027344 13.203125 82.226562 13.203125 82.324219 13.402344 C 82.421875 13.597656 82.519531 13.699219 82.519531 14.195312 C 82.519531 14.59375 82.324219 14.789062 82.125 14.988281 C 82.027344 15.1875 81.832031 15.1875 81.4375 15.1875 L 78.875 15.1875 Z M 79.269531 18.265625 L 82.324219 18.265625 C 82.421875 18.265625 82.816406 18.464844 83.015625 18.660156 C 83.210938 18.859375 83.210938 19.257812 83.210938 19.457031 C 83.210938 19.851562 83.015625 20.050781 82.816406 20.25 C 82.621094 20.449219 82.421875 20.648438 82.027344 20.648438 L 79.070312 20.648438 Z M 79.269531 18.265625 "/>
<path style=" stroke:none;fill-rule:nonzero;fill:rgb(100%,78.431374%,0%);fill-opacity:1;" d="M 94.550781 24.023438 C 94.054688 24.023438 93.464844 23.921875 92.875 23.824219 C 91.394531 23.527344 89.914062 23.03125 88.832031 22.335938 L 88.730469 22.234375 L 90.015625 19.257812 L 90.113281 19.257812 C 90.113281 19.257812 90.410156 19.257812 90.703125 19.554688 C 90.804688 19.554688 90.902344 19.65625 91 19.753906 C 91.492188 20.050781 91.984375 20.347656 92.773438 20.546875 C 93.269531 20.746094 93.660156 20.746094 94.15625 20.746094 C 95.042969 20.746094 95.4375 20.347656 95.929688 19.851562 C 95.929688 19.753906 95.929688 19.65625 95.730469 19.554688 C 95.4375 19.15625 94.746094 19.058594 93.957031 18.761719 C 93.167969 18.5625 92.28125 18.265625 91.492188 17.769531 C 90.804688 17.273438 90.015625 16.777344 89.816406 15.980469 C 89.519531 14.789062 89.621094 13.5 90.015625 12.605469 C 90.703125 11.117188 92.378906 10.125 94.253906 10.125 C 94.746094 10.125 95.140625 10.222656 95.535156 10.324219 C 96.71875 10.523438 97.902344 10.820312 98.886719 11.613281 L 98.984375 11.714844 L 97.703125 14.394531 L 97.605469 14.394531 C 97.308594 14.394531 97.308594 14.394531 97.015625 14.09375 C 96.621094 13.898438 95.929688 13.597656 95.238281 13.402344 C 94.746094 13.101562 94.449219 13.101562 94.054688 13.101562 C 92.773438 13.101562 92.578125 13.402344 92.578125 13.996094 C 92.578125 14.691406 93.269531 14.988281 94.648438 15.386719 C 95.238281 15.585938 95.929688 15.78125 96.71875 16.082031 C 98.492188 16.875 99.183594 17.96875 99.183594 19.753906 C 99.183594 20.648438 98.886719 21.539062 98.691406 21.839844 C 98.195312 22.929688 97.210938 23.625 96.027344 23.921875 C 95.535156 23.921875 95.042969 24.023438 94.550781 24.023438 Z M 94.550781 24.023438 "/>
<path style=" stroke:none;fill-rule:nonzero;fill:rgb(11.372549%,11.372549%,10.588235%);fill-opacity:1;" d="M 94.253906 10.324219 C 94.648438 10.324219 95.140625 10.421875 95.535156 10.523438 C 96.71875 10.820312 97.902344 11.019531 98.886719 11.8125 L 97.703125 14.292969 C 97.507812 14.292969 97.507812 14.292969 97.210938 13.996094 C 96.71875 13.699219 96.027344 13.5 95.339844 13.203125 C 94.84375 12.90625 94.550781 12.90625 94.15625 12.90625 C 92.972656 12.90625 92.480469 13.203125 92.480469 13.898438 C 92.480469 15.1875 94.351562 15.1875 96.71875 16.179688 C 98.394531 16.972656 99.085938 17.96875 99.085938 19.65625 C 99.085938 20.449219 98.886719 21.144531 98.589844 21.640625 C 98.097656 22.632812 97.210938 23.425781 96.027344 23.625 C 95.535156 23.722656 95.042969 23.824219 94.550781 23.824219 C 94.054688 23.824219 93.464844 23.722656 92.875 23.625 C 91.492188 23.328125 90.015625 22.832031 88.832031 22.136719 L 90.015625 19.355469 C 90.015625 19.355469 90.210938 19.355469 90.507812 19.65625 C 91 19.953125 91.691406 20.449219 92.675781 20.648438 C 93.167969 20.945312 93.660156 20.945312 94.054688 20.945312 C 95.042969 20.945312 95.4375 20.449219 95.929688 19.953125 C 95.929688 19.65625 95.929688 19.65625 95.730469 19.457031 C 95.042969 18.660156 93.167969 18.660156 91.492188 17.667969 C 90.804688 17.171875 90.113281 16.675781 89.816406 15.882812 C 89.621094 14.890625 89.621094 13.597656 90.015625 12.605469 C 90.804688 11.117188 92.480469 10.324219 94.253906 10.324219 M 94.253906 10.027344 C 92.28125 10.027344 90.605469 11.019531 89.816406 12.605469 C 89.324219 13.597656 89.226562 14.890625 89.519531 16.082031 C 89.816406 16.972656 90.605469 17.46875 91.296875 17.96875 C 92.183594 18.464844 93.070312 18.761719 93.859375 18.960938 C 94.550781 19.15625 95.238281 19.355469 95.535156 19.65625 C 95.632812 19.753906 95.632812 19.851562 95.730469 19.851562 C 95.339844 20.347656 94.945312 20.648438 94.15625 20.648438 C 93.660156 20.648438 93.269531 20.648438 92.875 20.449219 C 92.183594 20.25 91.589844 19.953125 91.195312 19.65625 C 91.097656 19.554688 91 19.554688 90.902344 19.457031 C 90.605469 19.15625 90.308594 19.15625 90.210938 19.15625 L 90.015625 19.15625 L 89.914062 19.355469 L 88.730469 22.136719 L 88.632812 22.335938 L 88.832031 22.433594 C 90.015625 23.128906 91.394531 23.722656 92.972656 23.921875 C 93.5625 24.023438 94.15625 24.121094 94.648438 24.121094 C 95.140625 24.121094 95.632812 24.023438 96.125 23.921875 C 97.410156 23.625 98.394531 22.832031 98.886719 21.738281 C 99.085938 21.441406 99.378906 20.546875 99.378906 19.65625 C 99.378906 17.867188 98.589844 16.675781 96.816406 15.882812 C 96.027344 15.585938 95.339844 15.386719 94.746094 15.1875 C 93.367188 14.789062 92.773438 14.59375 92.773438 13.996094 C 92.773438 13.597656 92.875 13.300781 94.15625 13.300781 C 94.648438 13.300781 94.746094 13.300781 95.238281 13.5 L 95.339844 13.5 C 96.027344 13.699219 96.621094 13.996094 97.113281 14.195312 C 97.308594 14.492188 97.410156 14.492188 97.804688 14.492188 L 98 14.492188 L 98.097656 14.292969 L 99.28125 11.8125 L 99.378906 11.613281 L 99.183594 11.515625 C 98.195312 10.71875 96.914062 10.421875 95.730469 10.222656 C 95.140625 10.027344 94.648438 10.027344 94.253906 10.027344 Z M 94.253906 10.027344 "/>
<path style=" stroke:none;fill-rule:nonzero;fill:rgb(100%,78.431374%,0%);fill-opacity:1;" d="M 6.308594 98.667969 C 2.859375 98.667969 0.195312 95.890625 0.195312 92.316406 C 0.195312 88.742188 2.859375 85.964844 6.308594 85.964844 C 9.660156 85.964844 12.421875 88.742188 12.421875 92.316406 C 12.324219 95.890625 9.660156 98.667969 6.308594 98.667969 Z M 6.308594 89.238281 C 4.730469 89.238281 3.351562 90.628906 3.351562 92.316406 C 3.351562 94.003906 4.730469 95.394531 6.308594 95.394531 C 7.886719 95.394531 9.269531 94.003906 9.269531 92.316406 C 9.269531 90.628906 7.886719 89.238281 6.308594 89.238281 Z M 6.308594 89.238281 "/>
<path style=" stroke:none;fill-rule:nonzero;fill:rgb(11.372549%,11.372549%,10.588235%);fill-opacity:1;" d="M 6.308594 86.0625 C 9.660156 86.0625 12.226562 88.84375 12.226562 92.316406 C 12.226562 95.789062 9.660156 98.570312 6.308594 98.570312 C 2.957031 98.570312 0.394531 95.789062 0.394531 92.316406 C 0.394531 88.84375 2.957031 86.0625 6.308594 86.0625 M 6.308594 95.59375 C 7.984375 95.59375 9.367188 94.101562 9.367188 92.316406 C 9.367188 90.53125 7.984375 89.039062 6.308594 89.039062 C 4.632812 89.039062 3.253906 90.53125 3.253906 92.316406 C 3.253906 94.101562 4.632812 95.59375 6.308594 95.59375 M 6.308594 85.765625 C 2.859375 85.765625 0.0976562 88.644531 0.0976562 92.316406 C 0.0976562 95.988281 2.859375 98.867188 6.308594 98.867188 C 9.761719 98.867188 12.519531 95.988281 12.519531 92.316406 C 12.519531 88.644531 9.761719 85.765625 6.308594 85.765625 Z M 6.308594 95.292969 C 4.832031 95.292969 3.550781 93.90625 3.550781 92.316406 C 3.550781 90.726562 4.832031 89.339844 6.308594 89.339844 C 7.789062 89.339844 9.070312 90.726562 9.070312 92.316406 C 9.070312 93.90625 7.789062 95.292969 6.308594 95.292969 Z M 6.308594 95.292969 "/>
<path style=" stroke:none;fill-rule:nonzero;fill:rgb(100%,78.431374%,0%);fill-opacity:1;" d="M 131.519531 48.738281 C 130.238281 48.738281 129.253906 47.648438 129.253906 46.355469 C 129.253906 45.066406 130.238281 43.972656 131.519531 43.972656 C 132.804688 43.972656 133.789062 45.066406 133.789062 46.355469 C 133.789062 47.746094 132.804688 48.738281 131.519531 48.738281 Z M 131.519531 48.738281 "/>
<path style=" stroke:none;fill-rule:nonzero;fill:rgb(11.372549%,11.372549%,10.588235%);fill-opacity:1;" d="M 131.519531 44.171875 C 132.703125 44.171875 133.691406 45.164062 133.691406 46.457031 C 133.691406 47.746094 132.703125 48.738281 131.519531 48.738281 C 130.339844 48.738281 129.351562 47.746094 129.351562 46.457031 C 129.351562 45.164062 130.339844 44.171875 131.519531 44.171875 M 131.519531 43.875 C 130.140625 43.875 129.054688 44.96875 129.054688 46.457031 C 129.054688 47.84375 130.140625 49.035156 131.519531 49.035156 C 132.902344 49.035156 133.984375 47.945312 133.984375 46.457031 C 133.984375 44.96875 132.902344 43.875 131.519531 43.875 Z M 131.519531 43.875 "/>
<path style=" stroke:none;fill-rule:nonzero;fill:rgb(100%,78.431374%,0%);fill-opacity:1;" d="M 126.984375 75.242188 C 125.703125 75.242188 124.71875 74.152344 124.71875 72.859375 C 124.71875 71.570312 125.703125 70.476562 126.984375 70.476562 C 128.269531 70.476562 129.253906 71.570312 129.253906 72.859375 C 129.253906 74.152344 128.269531 75.242188 126.984375 75.242188 Z M 126.984375 75.242188 "/>
<path style=" stroke:none;fill-rule:nonzero;fill:rgb(11.372549%,11.372549%,10.588235%);fill-opacity:1;" d="M 126.984375 70.578125 C 128.167969 70.578125 129.15625 71.570312 129.15625 72.859375 C 129.15625 74.050781 128.167969 75.144531 126.984375 75.144531 C 125.804688 75.144531 124.816406 74.152344 124.816406 72.859375 C 124.914062 71.570312 125.804688 70.578125 126.984375 70.578125 M 126.984375 70.28125 C 125.605469 70.28125 124.519531 71.371094 124.519531 72.859375 C 124.519531 74.25 125.605469 75.441406 126.984375 75.441406 C 128.367188 75.441406 129.449219 74.347656 129.449219 72.859375 C 129.449219 71.46875 128.367188 70.28125 126.984375 70.28125 Z M 126.984375 70.28125 "/>
<path style=" stroke:none;fill-rule:nonzero;fill:rgb(100%,78.431374%,0%);fill-opacity:1;" d="M 5.621094 8.140625 C 4.339844 8.140625 3.351562 7.046875 3.351562 5.757812 C 3.351562 4.46875 4.339844 3.375 5.621094 3.375 C 6.804688 3.277344 7.886719 4.367188 7.886719 5.65625 C 7.886719 7.046875 6.804688 8.140625 5.621094 8.140625 Z M 5.621094 8.140625 "/>
<path style=" stroke:none;fill-rule:nonzero;fill:rgb(11.372549%,11.372549%,10.588235%);fill-opacity:1;" d="M 5.621094 3.472656 C 6.804688 3.472656 7.789062 4.46875 7.789062 5.757812 C 7.691406 6.949219 6.804688 7.941406 5.621094 7.941406 C 4.4375 7.941406 3.449219 6.949219 3.449219 5.65625 C 3.449219 4.46875 4.4375 3.472656 5.621094 3.472656 M 5.621094 3.175781 C 4.238281 3.175781 3.15625 4.269531 3.15625 5.757812 C 3.15625 7.148438 4.238281 8.339844 5.621094 8.339844 C 7 8.339844 8.085938 7.246094 8.085938 5.757812 C 7.984375 4.269531 6.902344 3.175781 5.621094 3.175781 Z M 5.621094 3.175781 "/>
<path style=" stroke:none;fill-rule:nonzero;fill:rgb(100%,78.431374%,0%);fill-opacity:1;" d="M 14.589844 30.078125 C 13.308594 30.078125 12.324219 28.984375 12.324219 27.695312 C 12.324219 26.40625 13.308594 25.3125 14.589844 25.3125 C 15.875 25.3125 16.859375 26.40625 16.859375 27.695312 C 16.859375 28.984375 15.875 30.078125 14.589844 30.078125 Z M 14.589844 30.078125 "/>
<path style=" stroke:none;fill-rule:nonzero;fill:rgb(11.372549%,11.372549%,10.588235%);fill-opacity:1;" d="M 14.589844 25.410156 C 15.773438 25.410156 16.761719 26.40625 16.761719 27.695312 C 16.761719 28.984375 15.773438 29.976562 14.589844 29.976562 C 13.410156 29.976562 12.421875 28.984375 12.421875 27.695312 C 12.421875 26.40625 13.410156 25.410156 14.589844 25.410156 M 14.589844 25.113281 C 13.210938 25.113281 12.125 26.207031 12.125 27.695312 C 12.125 29.085938 13.210938 30.277344 14.589844 30.277344 C 15.972656 30.277344 17.054688 29.183594 17.054688 27.695312 C 16.957031 26.304688 15.875 25.113281 14.589844 25.113281 Z M 14.589844 25.113281 "/>
<path style=" stroke:none;fill-rule:nonzero;fill:rgb(100%,78.431374%,0%);fill-opacity:1;" d="M 5.621094 125.171875 C 4.339844 125.171875 3.351562 124.082031 3.351562 122.789062 C 3.351562 121.5 4.339844 120.40625 5.621094 120.40625 C 6.902344 120.40625 7.886719 121.5 7.886719 122.789062 C 7.886719 124.082031 6.804688 125.171875 5.621094 125.171875 Z M 5.621094 125.171875 "/>
<path style=" stroke:none;fill-rule:nonzero;fill:rgb(11.372549%,11.372549%,10.588235%);fill-opacity:1;" d="M 5.621094 120.507812 C 6.804688 120.507812 7.789062 121.5 7.789062 122.789062 C 7.789062 123.980469 6.804688 125.074219 5.621094 125.074219 C 4.4375 125.074219 3.449219 124.082031 3.449219 122.789062 C 3.449219 121.5 4.4375 120.507812 5.621094 120.507812 M 5.621094 120.210938 C 4.238281 120.210938 3.15625 121.300781 3.15625 122.789062 C 3.15625 124.179688 4.238281 125.371094 5.621094 125.371094 C 7 125.371094 8.085938 124.28125 8.085938 122.789062 C 7.984375 121.402344 6.902344 120.210938 5.621094 120.210938 Z M 5.621094 120.210938 "/>
<path style=" stroke:none;fill-rule:nonzero;fill:rgb(100%,78.431374%,0%);fill-opacity:1;" d="M 129.15625 27.097656 C 125.902344 27.097656 123.042969 24.21875 123.042969 20.746094 C 123.042969 17.171875 125.703125 14.394531 129.15625 14.394531 C 132.605469 14.394531 135.269531 17.171875 135.269531 20.746094 C 135.269531 24.320312 132.507812 27.097656 129.15625 27.097656 Z M 129.15625 17.570312 C 127.675781 17.570312 126.492188 18.859375 126.195312 20.648438 C 126.195312 22.335938 127.578125 23.722656 129.15625 23.722656 C 130.730469 23.722656 132.113281 22.335938 132.113281 20.648438 C 132.113281 18.960938 130.730469 17.570312 129.15625 17.570312 Z M 129.15625 17.570312 "/>
<path style=" stroke:none;fill-rule:nonzero;fill:rgb(11.372549%,11.372549%,10.588235%);fill-opacity:1;" d="M 129.15625 14.492188 C 132.507812 14.492188 135.070312 17.273438 135.070312 20.746094 C 135.070312 24.21875 132.507812 27 129.15625 27 C 125.804688 27 123.238281 24.023438 123.238281 20.746094 C 123.238281 17.171875 125.804688 14.492188 129.15625 14.492188 M 129.15625 23.921875 C 130.832031 23.921875 132.210938 22.433594 132.210938 20.648438 C 132.210938 18.859375 130.832031 17.371094 129.15625 17.371094 C 127.480469 17.371094 126.296875 18.859375 126.097656 20.648438 C 126.097656 22.433594 127.480469 23.921875 129.15625 23.921875 M 129.15625 14.195312 C 125.703125 14.195312 122.945312 17.074219 122.945312 20.746094 C 122.945312 24.320312 125.804688 27.296875 129.15625 27.296875 C 132.605469 27.296875 135.367188 24.417969 135.367188 20.746094 C 135.367188 17.074219 132.605469 14.195312 129.15625 14.195312 Z M 129.15625 23.625 C 127.675781 23.625 126.394531 22.234375 126.394531 20.648438 C 126.589844 19.257812 127.578125 17.667969 129.15625 17.667969 C 130.632812 17.667969 131.914062 19.058594 131.914062 20.648438 C 131.914062 22.234375 130.632812 23.625 129.15625 23.625 Z M 129.15625 23.625 "/>
<path style=" stroke:none;fill-rule:nonzero;fill:rgb(100%,78.431374%,0%);fill-opacity:1;" d="M 44.859375 39.507812 C 43.875 39.507812 43.28125 38.714844 43.28125 37.820312 C 43.28125 37.027344 44.070312 36.132812 44.859375 36.132812 L 56.691406 36.132812 C 57.480469 36.132812 58.269531 36.925781 58.269531 37.820312 C 58.269531 38.613281 57.480469 39.507812 56.691406 39.507812 Z M 44.859375 39.507812 "/>
<path style=" stroke:none;fill-rule:nonzero;fill:rgb(11.372549%,11.372549%,10.588235%);fill-opacity:1;" d="M 56.691406 36.429688 C 57.378906 36.429688 58.070312 37.222656 58.070312 37.917969 C 58.070312 38.613281 57.378906 39.40625 56.691406 39.40625 L 44.859375 39.40625 C 43.875 39.40625 43.480469 38.613281 43.480469 37.917969 C 43.480469 37.222656 44.167969 36.429688 44.859375 36.429688 L 56.691406 36.429688 M 56.691406 36.132812 L 44.859375 36.132812 C 43.972656 36.132812 43.183594 37.027344 43.183594 37.917969 C 43.183594 38.8125 43.773438 39.707031 44.859375 39.707031 L 56.691406 39.707031 C 57.578125 39.707031 58.367188 38.8125 58.367188 37.917969 C 58.464844 37.027344 57.578125 36.132812 56.691406 36.132812 Z M 56.691406 36.132812 "/>
<path style=" stroke:none;fill-rule:nonzero;fill:rgb(100%,78.431374%,0%);fill-opacity:1;" d="M 62.410156 45.5625 C 61.621094 45.5625 60.832031 44.769531 60.832031 43.875 C 60.832031 43.082031 61.621094 42.1875 62.410156 42.1875 L 83.210938 42.1875 C 83.804688 42.1875 84.296875 42.386719 84.589844 42.882812 C 84.789062 43.179688 84.886719 43.578125 84.789062 43.875 C 84.789062 44.667969 84 45.464844 83.210938 45.464844 L 62.410156 45.464844 Z M 62.410156 45.5625 "/>
<path style=" stroke:none;fill-rule:nonzero;fill:rgb(11.372549%,11.372549%,10.588235%);fill-opacity:1;" d="M 83.210938 42.386719 C 84.195312 42.386719 84.886719 43.179688 84.589844 43.875 C 84.589844 44.667969 83.902344 45.363281 83.210938 45.363281 L 62.410156 45.363281 C 61.71875 45.363281 61.027344 44.570312 61.027344 43.875 C 61.027344 43.082031 61.71875 42.386719 62.410156 42.386719 L 83.210938 42.386719 M 83.210938 42.089844 L 62.410156 42.089844 C 61.519531 42.089844 60.730469 42.980469 60.730469 43.875 C 60.730469 44.769531 61.621094 45.660156 62.410156 45.660156 L 83.210938 45.660156 C 84.097656 45.660156 84.886719 44.769531 84.886719 43.875 C 84.984375 43.476562 84.886719 43.082031 84.691406 42.78125 C 84.394531 42.386719 83.804688 42.089844 83.210938 42.089844 Z M 83.210938 42.089844 "/>
<path style=" stroke:none;fill-rule:nonzero;fill:rgb(100%,78.431374%,0%);fill-opacity:1;" d="M 69.015625 58.070312 C 67.632812 58.070312 66.351562 58.070312 65.167969 57.773438 C 60.238281 57.277344 56.886719 55.09375 55.902344 51.816406 L 44.859375 51.816406 C 44.070312 51.816406 43.28125 51.023438 43.28125 50.128906 C 43.28125 49.335938 44.070312 48.441406 44.859375 48.441406 L 56.589844 48.640625 C 56.589844 47.84375 56.789062 46.851562 56.984375 45.660156 L 45.84375 45.660156 C 45.054688 45.660156 44.269531 44.867188 44.269531 43.972656 C 44.269531 43.179688 45.054688 42.285156 45.84375 42.285156 L 57.773438 42.285156 C 57.773438 42.285156 57.972656 42.386719 58.070312 42.484375 C 61.027344 35.238281 67.140625 29.183594 73.945312 26.800781 C 74.042969 26.800781 74.238281 26.703125 74.4375 26.703125 C 75.125 26.703125 75.914062 27.199219 76.113281 27.894531 C 76.410156 28.6875 75.816406 29.78125 75.027344 30.078125 C 70.789062 31.367188 67.832031 33.949219 66.054688 36.03125 L 84.195312 36.03125 C 84.984375 36.03125 85.773438 36.828125 85.773438 37.71875 C 85.773438 38.515625 84.984375 39.40625 84.195312 39.40625 L 63.394531 39.40625 C 63.296875 39.507812 63.195312 39.707031 63.097656 39.804688 C 63 40.003906 62.804688 40.203125 62.703125 40.300781 C 59.84375 44.570312 59.253906 48.738281 59.648438 50.425781 C 60.339844 52.410156 62.804688 53.800781 66.351562 54.296875 C 67.238281 54.398438 68.324219 54.496094 69.308594 54.496094 C 73.351562 54.496094 78.183594 53.40625 82.421875 51.617188 L 63.296875 51.617188 C 62.507812 51.617188 61.71875 50.824219 61.71875 49.929688 C 61.71875 49.136719 62.507812 48.242188 63.296875 48.242188 L 84.097656 48.242188 C 84.589844 48.242188 84.984375 48.441406 85.28125 48.839844 C 85.578125 49.234375 85.675781 49.632812 85.675781 50.128906 C 88.535156 48.640625 90.804688 46.953125 92.480469 45.265625 L 90.015625 45.265625 C 89.226562 45.265625 88.4375 44.46875 88.4375 43.578125 C 88.4375 42.78125 89.226562 41.890625 90.015625 41.890625 L 95.140625 41.890625 L 95.339844 41.394531 C 95.730469 40.5 96.027344 39.707031 96.027344 39.011719 L 89.816406 39.011719 C 89.027344 39.011719 88.238281 38.21875 88.238281 37.324219 C 88.238281 36.53125 89.027344 35.636719 89.816406 35.636719 L 94.351562 35.636719 C 93.761719 35.238281 93.167969 34.84375 92.378906 34.445312 C 90.703125 33.652344 88.730469 33.253906 86.660156 33.253906 C 83.605469 33.253906 80.351562 34.148438 77.195312 35.734375 C 77 35.835938 76.804688 35.835938 76.605469 35.835938 C 75.914062 35.835938 75.324219 35.4375 75.125 34.84375 C 74.832031 34.046875 75.125 32.957031 75.914062 32.65625 C 79.464844 30.773438 83.308594 29.78125 86.957031 29.78125 C 89.421875 29.78125 91.789062 30.277344 93.761719 31.167969 C 96.324219 32.65625 97.902344 34.148438 98.492188 35.636719 L 110.421875 35.636719 C 111.210938 35.636719 112 36.429688 112 37.324219 C 112 38.117188 111.210938 39.011719 110.421875 39.011719 L 99.183594 39.011719 C 99.183594 40.101562 98.984375 40.996094 98.589844 41.988281 L 110.421875 41.988281 C 111.210938 41.988281 112 42.78125 112 43.675781 C 112 44.46875 111.210938 45.363281 110.421875 45.363281 L 96.519531 45.363281 C 95.632812 46.457031 94.84375 47.449219 93.957031 48.34375 L 110.421875 48.34375 C 111.210938 48.34375 112 49.136719 112 50.03125 C 112 50.824219 111.210938 51.71875 110.421875 51.71875 L 89.421875 51.71875 C 87.746094 52.808594 85.773438 53.800781 83.804688 54.695312 C 84.492188 54.894531 85.085938 55.589844 85.085938 56.28125 C 85.085938 57.078125 84.296875 57.96875 83.507812 57.96875 L 69.015625 57.96875 Z M 69.015625 58.070312 "/>
<path style=" stroke:none;fill-rule:nonzero;fill:rgb(11.372549%,11.372549%,10.588235%);fill-opacity:1;" d="M 74.4375 27.097656 C 75.027344 27.097656 75.71875 27.59375 75.914062 28.191406 C 76.113281 28.984375 75.71875 29.976562 74.929688 30.175781 C 70.886719 31.46875 67.832031 33.949219 65.660156 36.429688 L 84.097656 36.429688 C 84.789062 36.429688 85.480469 37.222656 85.480469 37.917969 C 85.480469 38.714844 84.789062 39.40625 84.097656 39.40625 L 63.296875 39.40625 C 63.097656 39.707031 62.804688 40.203125 62.605469 40.402344 C 59.746094 44.667969 59.054688 48.839844 59.550781 50.625 C 60.238281 52.609375 62.605469 54.097656 66.449219 54.59375 C 67.4375 54.695312 68.421875 54.792969 69.410156 54.792969 C 74.140625 54.792969 79.167969 53.40625 83.210938 51.617188 L 63.296875 51.617188 C 62.605469 51.617188 61.914062 50.824219 61.914062 50.128906 C 61.914062 49.335938 62.605469 48.640625 63.296875 48.640625 L 84.097656 48.640625 C 85.085938 48.640625 85.773438 49.632812 85.480469 50.625 C 88.339844 49.136719 90.902344 47.347656 92.773438 45.363281 L 89.914062 45.363281 C 89.226562 45.363281 88.535156 44.570312 88.535156 43.875 C 88.535156 43.082031 89.226562 42.386719 89.914062 42.386719 L 95.140625 42.386719 C 95.632812 41.09375 96.125 40.101562 96.125 39.109375 L 89.71875 39.109375 C 89.027344 39.109375 88.339844 38.316406 88.339844 37.621094 C 88.339844 36.828125 89.027344 36.132812 89.71875 36.132812 L 94.648438 36.132812 C 93.957031 35.636719 93.269531 35.140625 92.28125 34.644531 C 90.507812 33.847656 88.535156 33.453125 86.464844 33.453125 C 83.410156 33.453125 80.15625 34.246094 76.902344 35.933594 C 76.703125 36.03125 76.507812 36.03125 76.308594 36.03125 C 75.71875 36.03125 75.125 35.734375 74.929688 35.140625 C 74.730469 34.34375 74.929688 33.351562 75.621094 33.15625 C 79.269531 31.269531 83.015625 30.277344 86.5625 30.277344 C 89.027344 30.277344 91.296875 30.773438 93.367188 31.664062 C 95.535156 32.957031 97.410156 34.445312 98.097656 36.132812 L 110.421875 36.132812 C 111.113281 36.132812 111.804688 36.925781 111.804688 37.621094 C 111.804688 38.414062 111.113281 39.109375 110.421875 39.109375 L 99.085938 39.109375 C 99.085938 40.402344 98.886719 41.394531 98.394531 42.386719 L 110.421875 42.386719 C 111.113281 42.386719 111.804688 43.179688 111.804688 43.875 C 111.804688 44.667969 111.113281 45.363281 110.421875 45.363281 L 96.519531 45.363281 C 95.535156 46.65625 94.550781 47.648438 93.660156 48.640625 L 110.421875 48.640625 C 111.113281 48.640625 111.804688 49.433594 111.804688 50.128906 C 111.804688 50.921875 111.113281 51.617188 110.421875 51.617188 L 89.621094 51.617188 C 89.421875 51.617188 89.421875 51.617188 89.421875 51.617188 C 87.550781 52.90625 85.378906 53.902344 83.308594 54.894531 L 83.507812 54.894531 C 84.195312 54.894531 84.886719 55.6875 84.886719 56.382812 C 84.886719 57.175781 84.195312 57.871094 83.507812 57.871094 C 80.15625 57.871094 69.507812 57.871094 69.113281 57.871094 C 67.730469 57.871094 66.550781 57.871094 65.367188 57.574219 C 60.4375 57.078125 57.085938 54.792969 56.097656 51.617188 L 44.859375 51.617188 C 44.167969 51.617188 43.480469 50.824219 43.480469 50.128906 C 43.480469 49.335938 44.167969 48.640625 44.859375 48.640625 L 56.691406 48.9375 C 56.691406 47.945312 56.886719 46.65625 57.183594 45.660156 L 45.84375 45.660156 C 45.15625 45.660156 44.464844 44.867188 44.464844 44.171875 C 44.464844 43.378906 45.15625 42.683594 45.84375 42.683594 L 57.675781 42.683594 C 57.675781 42.683594 57.875 42.980469 58.167969 42.980469 C 61.027344 36.03125 66.945312 29.78125 74.042969 27.296875 C 74.140625 27.097656 74.238281 27.097656 74.4375 27.097656 M 74.4375 26.800781 C 74.238281 26.800781 74.140625 26.800781 73.945312 26.902344 C 67.140625 29.28125 61.027344 35.238281 57.972656 42.484375 C 57.972656 42.484375 57.875 42.386719 57.875 42.386719 L 57.773438 42.285156 L 45.84375 42.285156 C 44.957031 42.285156 44.167969 43.179688 44.167969 44.074219 C 44.167969 44.96875 45.054688 45.859375 45.84375 45.859375 L 56.789062 45.859375 C 56.589844 46.851562 56.394531 47.746094 56.394531 48.539062 L 44.859375 48.34375 C 43.972656 48.34375 43.183594 49.234375 43.183594 50.128906 C 43.183594 51.023438 43.972656 51.914062 44.859375 51.914062 L 55.804688 51.914062 C 56.886719 55.191406 60.339844 57.375 65.269531 57.871094 C 66.449219 58.167969 67.632812 58.167969 69.113281 58.167969 L 83.507812 58.167969 C 84.394531 58.167969 85.183594 57.277344 85.183594 56.382812 C 85.183594 55.6875 84.691406 55.09375 84.195312 54.792969 C 86.070312 53.902344 87.84375 53.007812 89.519531 51.914062 L 110.421875 51.914062 C 111.308594 51.914062 112.097656 51.023438 112.097656 50.128906 C 112.097656 49.234375 111.210938 48.34375 110.421875 48.34375 L 94.351562 48.34375 C 95.140625 47.546875 95.929688 46.65625 96.621094 45.660156 L 110.421875 45.660156 C 111.308594 45.660156 112.097656 44.769531 112.097656 43.875 C 112.097656 42.980469 111.210938 42.089844 110.421875 42.089844 L 98.789062 42.089844 C 99.085938 41.195312 99.28125 40.402344 99.378906 39.40625 L 110.421875 39.40625 C 111.308594 39.40625 112.097656 38.515625 112.097656 37.621094 C 112.097656 36.726562 111.210938 35.835938 110.421875 35.835938 L 98.589844 35.835938 C 97.902344 34.34375 96.324219 32.855469 93.859375 31.367188 C 91.789062 30.375 89.421875 29.976562 86.957031 29.976562 C 83.308594 29.976562 79.464844 30.96875 75.816406 32.855469 C 74.929688 33.15625 74.632812 34.34375 74.929688 35.238281 C 75.027344 35.636719 75.324219 35.933594 75.71875 36.132812 L 66.449219 36.132812 C 68.226562 34.148438 71.085938 31.664062 75.125 30.472656 C 76.015625 30.175781 76.507812 28.984375 76.308594 28.09375 C 75.914062 27.398438 75.125 26.800781 74.4375 26.800781 Z M 77.296875 36.132812 C 80.449219 34.542969 83.605469 33.75 86.5625 33.75 C 88.632812 33.75 90.605469 34.148438 92.28125 34.941406 C 92.875 35.238281 93.367188 35.535156 93.859375 35.835938 L 89.816406 35.835938 C 88.929688 35.835938 88.140625 36.726562 88.140625 37.621094 C 88.140625 38.515625 89.027344 39.40625 89.816406 39.40625 L 95.929688 39.40625 C 95.832031 40.101562 95.535156 40.796875 95.238281 41.59375 C 95.140625 41.691406 95.140625 41.890625 95.042969 41.988281 L 90.015625 41.988281 C 89.125 41.988281 88.339844 42.882812 88.339844 43.777344 C 88.339844 44.667969 89.226562 45.5625 90.015625 45.5625 L 92.183594 45.5625 C 90.605469 47.050781 88.535156 48.539062 85.875 50.03125 C 85.875 49.632812 85.675781 49.234375 85.480469 48.9375 C 85.183594 48.539062 84.691406 48.242188 84.097656 48.242188 L 63.296875 48.242188 C 62.410156 48.242188 61.621094 49.136719 61.621094 50.03125 C 61.621094 50.921875 62.507812 51.816406 63.296875 51.816406 L 81.730469 51.816406 C 77.589844 53.503906 73.15625 54.398438 69.308594 54.398438 C 68.324219 54.398438 67.339844 54.296875 66.351562 54.199219 C 62.804688 53.703125 60.4375 52.3125 59.746094 50.425781 C 59.351562 48.839844 59.945312 44.667969 62.804688 40.5 C 62.902344 40.402344 63 40.203125 63.195312 40.003906 C 63.296875 39.90625 63.394531 39.707031 63.394531 39.605469 L 84.097656 39.605469 C 84.984375 39.605469 85.773438 38.714844 85.773438 37.820312 C 85.773438 36.925781 84.886719 36.03125 84.097656 36.03125 L 77.296875 36.03125 Z M 77.296875 36.132812 "/>
<path style=" stroke:none;fill-rule:nonzero;fill:rgb(100%,78.431374%,0%);fill-opacity:1;" d="M 44.859375 58.269531 C 43.875 58.269531 43.28125 57.472656 43.28125 56.582031 C 43.28125 55.785156 44.070312 54.894531 44.859375 54.894531 L 56.691406 54.894531 C 57.480469 54.894531 58.269531 55.6875 58.269531 56.582031 C 58.269531 57.375 57.480469 58.269531 56.691406 58.269531 Z M 44.859375 58.269531 "/>
<path style=" stroke:none;fill-rule:nonzero;fill:rgb(11.372549%,11.372549%,10.588235%);fill-opacity:1;" d="M 56.691406 55.09375 C 57.378906 55.09375 58.070312 55.886719 58.070312 56.582031 C 58.070312 57.277344 57.378906 58.070312 56.691406 58.070312 L 44.859375 58.070312 C 43.875 58.070312 43.480469 57.277344 43.480469 56.582031 C 43.480469 55.886719 44.167969 55.09375 44.859375 55.09375 L 56.691406 55.09375 M 56.691406 54.792969 L 44.859375 54.792969 C 43.972656 54.792969 43.183594 55.6875 43.183594 56.582031 C 43.183594 57.472656 43.773438 58.367188 44.859375 58.367188 L 56.691406 58.367188 C 57.578125 58.367188 58.367188 57.472656 58.367188 56.582031 C 58.464844 55.6875 57.578125 54.792969 56.691406 54.792969 Z M 56.691406 54.792969 "/>
<path style=" stroke:none;fill-rule:nonzero;fill:rgb(100%,78.431374%,0%);fill-opacity:1;" d="M 89.125 58.070312 C 88.339844 58.070312 87.550781 57.277344 87.550781 56.382812 C 87.550781 55.589844 88.339844 54.695312 89.125 54.695312 L 109.929688 54.695312 C 110.71875 54.695312 111.507812 55.488281 111.507812 56.382812 C 111.507812 57.175781 110.71875 58.070312 109.929688 58.070312 Z M 89.125 58.070312 "/>
<path style=" stroke:none;fill-rule:nonzero;fill:rgb(11.372549%,11.372549%,10.588235%);fill-opacity:1;" d="M 109.929688 54.894531 C 110.621094 54.894531 111.308594 55.6875 111.308594 56.382812 C 111.308594 57.175781 110.621094 57.871094 109.929688 57.871094 L 89.125 57.871094 C 88.4375 57.871094 87.746094 57.078125 87.746094 56.382812 C 87.746094 55.589844 88.4375 54.894531 89.125 54.894531 L 109.929688 54.894531 M 109.929688 54.59375 L 89.125 54.59375 C 88.238281 54.59375 87.449219 55.488281 87.449219 56.382812 C 87.449219 57.277344 88.238281 58.167969 89.125 58.167969 L 109.929688 58.167969 C 110.816406 58.167969 111.605469 57.277344 111.605469 56.382812 C 111.703125 55.488281 110.816406 54.59375 109.929688 54.59375 Z M 109.929688 54.59375 "/>
<path style=" stroke:none;fill-rule:nonzero;fill:rgb(100%,78.431374%,0%);fill-opacity:1;" d="M 44.859375 64.523438 C 43.875 64.523438 43.28125 63.726562 43.28125 62.835938 C 43.28125 62.039062 44.070312 61.148438 44.859375 61.148438 L 56.691406 61.148438 C 57.480469 61.148438 58.269531 61.941406 58.269531 62.835938 C 58.269531 63.628906 57.480469 64.523438 56.691406 64.523438 Z M 44.859375 64.523438 "/>
<path style=" stroke:none;fill-rule:nonzero;fill:rgb(11.372549%,11.372549%,10.588235%);fill-opacity:1;" d="M 56.691406 61.34375 C 57.378906 61.34375 58.070312 62.140625 58.070312 62.835938 C 58.070312 63.628906 57.378906 64.324219 56.691406 64.324219 L 44.859375 64.324219 C 43.875 64.324219 43.480469 63.53125 43.480469 62.835938 C 43.480469 62.039062 44.167969 61.34375 44.859375 61.34375 L 56.691406 61.34375 M 56.691406 61.046875 L 44.859375 61.046875 C 43.972656 61.046875 43.183594 61.941406 43.183594 62.835938 C 43.183594 63.726562 43.773438 64.621094 44.859375 64.621094 L 56.691406 64.621094 C 57.578125 64.621094 58.367188 63.726562 58.367188 62.835938 C 58.464844 61.941406 57.578125 61.046875 56.691406 61.046875 Z M 56.691406 61.046875 "/>
<path style=" stroke:none;fill-rule:nonzero;fill:rgb(100%,78.431374%,0%);fill-opacity:1;" d="M 62.410156 64.222656 C 61.621094 64.222656 60.832031 63.429688 60.832031 62.535156 C 60.832031 61.742188 61.621094 60.847656 62.410156 60.847656 L 83.210938 60.847656 C 83.804688 60.847656 84.296875 61.046875 84.589844 61.542969 C 84.789062 61.84375 84.886719 62.238281 84.789062 62.535156 C 84.789062 63.332031 84 64.125 83.210938 64.125 L 62.410156 64.125 Z M 62.410156 64.222656 "/>
<path style=" stroke:none;fill-rule:nonzero;fill:rgb(11.372549%,11.372549%,10.588235%);fill-opacity:1;" d="M 83.210938 61.148438 C 84.195312 61.148438 84.886719 61.941406 84.589844 62.636719 C 84.589844 63.429688 83.902344 64.125 83.210938 64.125 L 62.410156 64.125 C 61.71875 64.125 61.027344 63.332031 61.027344 62.636719 C 61.027344 61.84375 61.71875 61.148438 62.410156 61.148438 L 83.210938 61.148438 M 83.210938 60.847656 L 62.410156 60.847656 C 61.519531 60.847656 60.730469 61.742188 60.730469 62.636719 C 60.730469 63.53125 61.621094 64.421875 62.410156 64.421875 L 83.210938 64.421875 C 84.097656 64.421875 84.886719 63.53125 84.886719 62.636719 C 84.984375 62.238281 84.886719 61.84375 84.691406 61.542969 C 84.394531 61.046875 83.804688 60.847656 83.210938 60.847656 Z M 83.210938 60.847656 "/>
<path style=" stroke:none;fill-rule:nonzero;fill:rgb(100%,78.431374%,0%);fill-opacity:1;" d="M 89.125 64.222656 C 88.339844 64.222656 87.550781 63.429688 87.550781 62.535156 C 87.550781 61.742188 88.339844 60.847656 89.125 60.847656 L 109.929688 60.847656 C 110.71875 60.847656 111.507812 61.644531 111.507812 62.535156 C 111.507812 63.332031 110.71875 64.222656 109.929688 64.222656 Z M 89.125 64.222656 "/>
<path style=" stroke:none;fill-rule:nonzero;fill:rgb(11.372549%,11.372549%,10.588235%);fill-opacity:1;" d="M 109.929688 61.148438 C 110.621094 61.148438 111.308594 61.941406 111.308594 62.636719 C 111.308594 63.429688 110.621094 64.125 109.929688 64.125 L 89.125 64.125 C 88.4375 64.125 87.746094 63.332031 87.746094 62.636719 C 87.746094 61.84375 88.4375 61.148438 89.125 61.148438 L 109.929688 61.148438 M 109.929688 60.847656 L 89.125 60.847656 C 88.238281 60.847656 87.449219 61.742188 87.449219 62.636719 C 87.449219 63.53125 88.238281 64.421875 89.125 64.421875 L 109.929688 64.421875 C 110.816406 64.421875 111.605469 63.53125 111.605469 62.636719 C 111.703125 61.742188 110.816406 60.847656 109.929688 60.847656 Z M 109.929688 60.847656 "/>
<path style=" stroke:none;fill-rule:nonzero;fill:rgb(100%,78.431374%,0%);fill-opacity:1;" d="M 44.859375 70.777344 C 43.773438 70.777344 43.28125 69.683594 43.28125 68.890625 C 43.28125 68.09375 44.070312 67.203125 44.859375 67.203125 L 56.691406 67.203125 C 57.480469 67.203125 58.269531 68.292969 58.269531 69.089844 C 58.269531 69.882812 57.480469 70.777344 56.691406 70.777344 Z M 44.859375 70.777344 "/>
<path style=" stroke:none;fill-rule:nonzero;fill:rgb(11.372549%,11.372549%,10.588235%);fill-opacity:1;" d="M 56.691406 67.402344 C 57.378906 67.402344 58.070312 68.394531 58.070312 69.1875 C 58.070312 69.980469 57.378906 70.675781 56.691406 70.675781 L 44.859375 70.675781 C 43.875 70.675781 43.480469 69.683594 43.480469 68.890625 C 43.480469 68.09375 44.167969 67.402344 44.859375 67.402344 L 56.691406 67.402344 M 56.691406 67.101562 L 44.859375 67.101562 C 43.972656 67.101562 43.183594 67.996094 43.183594 68.890625 C 43.183594 69.882812 43.875 70.972656 44.859375 70.972656 L 56.691406 70.972656 C 57.578125 70.972656 58.367188 70.082031 58.367188 69.1875 C 58.464844 68.195312 57.578125 67.101562 56.691406 67.101562 Z M 56.691406 67.101562 "/>
<path style=" stroke:none;fill-rule:nonzero;fill:rgb(100%,78.431374%,0%);fill-opacity:1;" d="M 62.410156 70.476562 C 61.621094 70.476562 60.832031 69.683594 60.832031 68.789062 C 60.832031 67.996094 61.621094 67.101562 62.410156 67.101562 L 83.210938 67.101562 C 84.195312 67.101562 84.789062 67.898438 84.789062 68.789062 C 84.789062 69.585938 84 70.476562 83.210938 70.476562 Z M 62.410156 70.476562 "/>
<path style=" stroke:none;fill-rule:nonzero;fill:rgb(11.372549%,11.372549%,10.588235%);fill-opacity:1;" d="M 83.210938 67.402344 C 84.195312 67.402344 84.589844 68.195312 84.589844 68.890625 C 84.589844 69.683594 83.902344 70.378906 83.210938 70.378906 L 62.410156 70.378906 C 61.71875 70.378906 61.027344 69.585938 61.027344 68.890625 C 61.027344 68.09375 61.71875 67.402344 62.410156 67.402344 L 83.210938 67.402344 M 83.210938 67.101562 L 62.410156 67.101562 C 61.519531 67.101562 60.730469 67.996094 60.730469 68.890625 C 60.730469 69.78125 61.621094 70.675781 62.410156 70.675781 L 83.210938 70.675781 C 84.097656 70.675781 84.886719 69.78125 84.886719 68.890625 C 84.984375 67.996094 84.394531 67.101562 83.210938 67.101562 Z M 83.210938 67.101562 "/>
<path style=" stroke:none;fill-rule:nonzero;fill:rgb(100%,78.431374%,0%);fill-opacity:1;" d="M 89.125 70.476562 C 88.339844 70.476562 87.550781 69.683594 87.550781 68.789062 C 87.550781 67.996094 88.339844 67.101562 89.125 67.101562 L 109.929688 67.101562 C 110.71875 67.101562 111.507812 67.898438 111.507812 68.789062 C 111.507812 69.585938 110.71875 70.476562 109.929688 70.476562 Z M 89.125 70.476562 "/>
<path style=" stroke:none;fill-rule:nonzero;fill:rgb(11.372549%,11.372549%,10.588235%);fill-opacity:1;" d="M 109.929688 67.402344 C 110.621094 67.402344 111.308594 68.195312 111.308594 68.890625 C 111.308594 69.683594 110.621094 70.378906 109.929688 70.378906 L 89.125 70.378906 C 88.4375 70.378906 87.746094 69.585938 87.746094 68.890625 C 87.746094 68.09375 88.4375 67.402344 89.125 67.402344 L 109.929688 67.402344 M 109.929688 67.101562 L 89.125 67.101562 C 88.238281 67.101562 87.449219 67.996094 87.449219 68.890625 C 87.449219 69.78125 88.238281 70.675781 89.125 70.675781 L 109.929688 70.675781 C 110.816406 70.675781 111.605469 69.78125 111.605469 68.890625 C 111.703125 67.996094 110.816406 67.101562 109.929688 67.101562 Z M 109.929688 67.101562 "/>
<path style=" stroke:none;fill-rule:nonzero;fill:rgb(100%,78.431374%,0%);fill-opacity:1;" d="M 44.859375 77.03125 C 43.875 77.03125 43.28125 76.234375 43.28125 75.34375 C 43.28125 74.546875 44.070312 73.65625 44.859375 73.65625 L 56.691406 73.65625 C 57.480469 73.65625 58.269531 74.449219 58.269531 75.34375 C 58.269531 76.136719 57.480469 77.03125 56.691406 77.03125 Z M 44.859375 77.03125 "/>
<path style=" stroke:none;fill-rule:nonzero;fill:rgb(11.372549%,11.372549%,10.588235%);fill-opacity:1;" d="M 56.691406 73.851562 C 57.378906 73.851562 58.070312 74.648438 58.070312 75.34375 C 58.070312 76.035156 57.378906 76.832031 56.691406 76.832031 L 44.859375 76.832031 C 43.875 76.832031 43.480469 76.035156 43.480469 75.34375 C 43.480469 74.648438 44.167969 73.851562 44.859375 73.851562 L 56.691406 73.851562 M 56.691406 73.554688 L 44.859375 73.554688 C 43.972656 73.554688 43.183594 74.449219 43.183594 75.34375 C 43.183594 76.234375 43.773438 77.128906 44.859375 77.128906 L 56.691406 77.128906 C 57.578125 77.128906 58.367188 76.234375 58.367188 75.34375 C 58.464844 74.449219 57.578125 73.554688 56.691406 73.554688 Z M 56.691406 73.554688 "/>
<path style=" stroke:none;fill-rule:nonzero;fill:rgb(100%,78.431374%,0%);fill-opacity:1;" d="M 62.410156 76.730469 C 61.621094 76.730469 60.832031 75.9375 60.832031 75.042969 C 60.832031 74.25 61.621094 73.355469 62.410156 73.355469 L 83.210938 73.355469 C 84.195312 73.355469 84.789062 74.152344 84.789062 75.042969 C 84.789062 75.839844 84 76.730469 83.210938 76.730469 Z M 62.410156 76.730469 "/>
<path style=" stroke:none;fill-rule:nonzero;fill:rgb(11.372549%,11.372549%,10.588235%);fill-opacity:1;" d="M 83.210938 73.554688 C 84.195312 73.554688 84.589844 74.347656 84.589844 75.042969 C 84.589844 75.839844 83.902344 76.53125 83.210938 76.53125 L 62.410156 76.53125 C 61.71875 76.53125 61.027344 75.738281 61.027344 75.042969 C 61.027344 74.25 61.71875 73.554688 62.410156 73.554688 L 83.210938 73.554688 M 83.210938 73.257812 L 62.410156 73.257812 C 61.519531 73.257812 60.730469 74.152344 60.730469 75.042969 C 60.730469 75.9375 61.621094 76.832031 62.410156 76.832031 L 83.210938 76.832031 C 84.097656 76.832031 84.886719 75.9375 84.886719 75.042969 C 84.984375 74.25 84.394531 73.257812 83.210938 73.257812 Z M 83.210938 73.257812 "/>
<path style=" stroke:none;fill-rule:nonzero;fill:rgb(100%,78.431374%,0%);fill-opacity:1;" d="M 89.125 76.730469 C 88.339844 76.730469 87.550781 75.9375 87.550781 75.042969 C 87.550781 74.25 88.339844 73.355469 89.125 73.355469 L 109.929688 73.355469 C 110.71875 73.355469 111.507812 74.152344 111.507812 75.042969 C 111.507812 75.839844 110.71875 76.730469 109.929688 76.730469 Z M 89.125 76.730469 "/>
<path style=" stroke:none;fill-rule:nonzero;fill:rgb(11.372549%,11.372549%,10.588235%);fill-opacity:1;" d="M 109.929688 73.554688 C 110.621094 73.554688 111.308594 74.347656 111.308594 75.042969 C 111.308594 75.839844 110.621094 76.53125 109.929688 76.53125 L 89.125 76.53125 C 88.4375 76.53125 87.746094 75.738281 87.746094 75.042969 C 87.746094 74.25 88.4375 73.554688 89.125 73.554688 L 109.929688 73.554688 M 109.929688 73.257812 L 89.125 73.257812 C 88.238281 73.257812 87.449219 74.152344 87.449219 75.042969 C 87.449219 75.9375 88.238281 76.832031 89.125 76.832031 L 109.929688 76.832031 C 110.816406 76.832031 111.605469 75.9375 111.605469 75.042969 C 111.703125 74.152344 110.816406 73.257812 109.929688 73.257812 Z M 109.929688 73.257812 "/>
<path style=" stroke:none;fill-rule:nonzero;fill:rgb(100%,78.431374%,0%);fill-opacity:1;" d="M 44.859375 83.28125 C 43.773438 83.28125 43.28125 82.191406 43.28125 81.398438 C 43.28125 80.601562 44.070312 79.710938 44.859375 79.710938 L 56.691406 79.710938 C 57.480469 79.710938 58.269531 80.800781 58.269531 81.59375 C 58.269531 82.390625 57.480469 83.28125 56.691406 83.28125 Z M 44.859375 83.28125 "/>
<path style=" stroke:none;fill-rule:nonzero;fill:rgb(11.372549%,11.372549%,10.588235%);fill-opacity:1;" d="M 56.691406 79.808594 C 57.378906 79.808594 58.070312 80.800781 58.070312 81.59375 C 58.070312 82.390625 57.378906 83.085938 56.691406 83.085938 L 44.859375 83.085938 C 43.875 83.085938 43.480469 82.09375 43.480469 81.296875 C 43.480469 80.503906 44.167969 79.808594 44.859375 79.808594 L 56.691406 79.808594 M 56.691406 79.511719 L 44.859375 79.511719 C 43.972656 79.511719 43.183594 80.40625 43.183594 81.296875 C 43.183594 82.289062 43.875 83.382812 44.859375 83.382812 L 56.691406 83.382812 C 57.578125 83.382812 58.367188 82.488281 58.367188 81.59375 C 58.464844 80.703125 57.578125 79.511719 56.691406 79.511719 Z M 56.691406 79.511719 "/>
<path style=" stroke:none;fill-rule:nonzero;fill:rgb(100%,78.431374%,0%);fill-opacity:1;" d="M 62.410156 82.984375 C 61.621094 82.984375 60.832031 82.191406 60.832031 81.296875 C 60.832031 80.503906 61.621094 79.609375 62.410156 79.609375 L 83.210938 79.609375 C 84.195312 79.609375 84.789062 80.40625 84.789062 81.296875 C 84.789062 82.09375 84 82.984375 83.210938 82.984375 Z M 62.410156 82.984375 "/>
<path style=" stroke:none;fill-rule:nonzero;fill:rgb(11.372549%,11.372549%,10.588235%);fill-opacity:1;" d="M 83.210938 79.808594 C 84.195312 79.808594 84.589844 80.601562 84.589844 81.296875 C 84.589844 82.09375 83.902344 82.785156 83.210938 82.785156 L 62.410156 82.785156 C 61.71875 82.785156 61.027344 81.992188 61.027344 81.296875 C 61.027344 80.503906 61.71875 79.808594 62.410156 79.808594 L 83.210938 79.808594 M 83.210938 79.511719 L 62.410156 79.511719 C 61.519531 79.511719 60.730469 80.40625 60.730469 81.296875 C 60.730469 82.191406 61.621094 83.085938 62.410156 83.085938 L 83.210938 83.085938 C 84.097656 83.085938 84.886719 82.191406 84.886719 81.296875 C 84.984375 80.40625 84.394531 79.511719 83.210938 79.511719 Z M 83.210938 79.511719 "/>
<path style=" stroke:none;fill-rule:nonzero;fill:rgb(100%,78.431374%,0%);fill-opacity:1;" d="M 89.125 82.984375 C 88.339844 82.984375 87.550781 82.191406 87.550781 81.296875 C 87.550781 80.503906 88.339844 79.609375 89.125 79.609375 L 109.929688 79.609375 C 110.71875 79.609375 111.507812 80.40625 111.507812 81.296875 C 111.507812 82.09375 110.71875 82.984375 109.929688 82.984375 Z M 89.125 82.984375 "/>
<path style=" stroke:none;fill-rule:nonzero;fill:rgb(11.372549%,11.372549%,10.588235%);fill-opacity:1;" d="M 109.929688 79.808594 C 110.621094 79.808594 111.308594 80.601562 111.308594 81.296875 C 111.308594 82.09375 110.621094 82.785156 109.929688 82.785156 L 89.125 82.785156 C 88.4375 82.785156 87.746094 81.992188 87.746094 81.296875 C 87.746094 80.503906 88.4375 79.808594 89.125 79.808594 L 109.929688 79.808594 M 109.929688 79.511719 L 89.125 79.511719 C 88.238281 79.511719 87.449219 80.40625 87.449219 81.296875 C 87.449219 82.191406 88.238281 83.085938 89.125 83.085938 L 109.929688 83.085938 C 110.816406 83.085938 111.605469 82.191406 111.605469 81.296875 C 111.703125 80.40625 110.816406 79.511719 109.929688 79.511719 Z M 109.929688 79.511719 "/>
<path style=" stroke:none;fill-rule:nonzero;fill:rgb(100%,78.431374%,0%);fill-opacity:1;" d="M 44.859375 89.4375 C 43.875 89.4375 43.28125 88.644531 43.28125 87.75 C 43.28125 86.957031 44.070312 86.0625 44.859375 86.0625 L 56.691406 86.0625 C 57.480469 86.0625 58.269531 86.855469 58.269531 87.75 C 58.269531 88.542969 57.480469 89.4375 56.691406 89.4375 Z M 44.859375 89.4375 "/>
<path style=" stroke:none;fill-rule:nonzero;fill:rgb(11.372549%,11.372549%,10.588235%);fill-opacity:1;" d="M 56.691406 86.359375 C 57.378906 86.359375 58.070312 87.15625 58.070312 87.847656 C 58.070312 88.644531 57.378906 89.339844 56.691406 89.339844 L 44.859375 89.339844 C 43.875 89.339844 43.480469 88.542969 43.480469 87.847656 C 43.480469 87.054688 44.167969 86.359375 44.859375 86.359375 L 56.691406 86.359375 M 56.691406 86.0625 L 44.859375 86.0625 C 43.972656 86.0625 43.183594 86.957031 43.183594 87.847656 C 43.183594 88.742188 43.773438 89.636719 44.859375 89.636719 L 56.691406 89.636719 C 57.578125 89.636719 58.367188 88.742188 58.367188 87.847656 C 58.464844 86.957031 57.578125 86.0625 56.691406 86.0625 Z M 56.691406 86.0625 "/>
<path style=" stroke:none;fill-rule:nonzero;fill:rgb(100%,78.431374%,0%);fill-opacity:1;" d="M 62.410156 89.238281 C 61.621094 89.238281 60.832031 88.445312 60.832031 87.550781 C 60.832031 86.757812 61.621094 85.863281 62.410156 85.863281 L 83.210938 85.863281 C 84.195312 85.863281 84.789062 86.65625 84.789062 87.550781 C 84.789062 88.34375 84 89.238281 83.210938 89.238281 Z M 62.410156 89.238281 "/>
<path style=" stroke:none;fill-rule:nonzero;fill:rgb(11.372549%,11.372549%,10.588235%);fill-opacity:1;" d="M 83.210938 86.0625 C 84.195312 86.0625 84.589844 86.855469 84.589844 87.550781 C 84.589844 88.34375 83.902344 89.039062 83.210938 89.039062 L 62.410156 89.039062 C 61.71875 89.039062 61.027344 88.246094 61.027344 87.550781 C 61.027344 86.757812 61.71875 86.0625 62.410156 86.0625 L 83.210938 86.0625 M 83.210938 85.765625 L 62.410156 85.765625 C 61.519531 85.765625 60.730469 86.65625 60.730469 87.550781 C 60.730469 88.445312 61.621094 89.339844 62.410156 89.339844 L 83.210938 89.339844 C 84.097656 89.339844 84.886719 88.445312 84.886719 87.550781 C 84.984375 86.65625 84.394531 85.765625 83.210938 85.765625 Z M 83.210938 85.765625 "/>
<path style=" stroke:none;fill-rule:nonzero;fill:rgb(100%,78.431374%,0%);fill-opacity:1;" d="M 89.125 89.238281 C 88.339844 89.238281 87.550781 88.445312 87.550781 87.550781 C 87.550781 86.757812 88.339844 85.863281 89.125 85.863281 L 109.929688 85.863281 C 110.71875 85.863281 111.507812 86.65625 111.507812 87.550781 C 111.507812 88.34375 110.71875 89.238281 109.929688 89.238281 Z M 89.125 89.238281 "/>
<path style=" stroke:none;fill-rule:nonzero;fill:rgb(11.372549%,11.372549%,10.588235%);fill-opacity:1;" d="M 109.929688 86.0625 C 110.621094 86.0625 111.308594 86.855469 111.308594 87.550781 C 111.308594 88.34375 110.621094 89.039062 109.929688 89.039062 L 89.125 89.039062 C 88.4375 89.039062 87.746094 88.246094 87.746094 87.550781 C 87.746094 86.757812 88.4375 86.0625 89.125 86.0625 L 109.929688 86.0625 M 109.929688 85.765625 L 89.125 85.765625 C 88.238281 85.765625 87.449219 86.65625 87.449219 87.550781 C 87.449219 88.445312 88.238281 89.339844 89.125 89.339844 L 109.929688 89.339844 C 110.816406 89.339844 111.605469 88.445312 111.605469 87.550781 C 111.703125 86.65625 110.816406 85.765625 109.929688 85.765625 Z M 109.929688 85.765625 "/>
<path style=" stroke:none;fill-rule:nonzero;fill:rgb(100%,78.431374%,0%);fill-opacity:1;" d="M 56.984375 95.492188 C 56.886719 95.492188 56.789062 95.492188 56.691406 95.394531 L 44.859375 95.394531 C 44.070312 95.394531 43.28125 94.597656 43.28125 93.707031 C 43.28125 92.910156 44.070312 92.019531 44.859375 92.019531 L 56.691406 92.019531 C 57.480469 92.019531 58.269531 92.8125 58.269531 93.707031 C 58.269531 94.203125 58.167969 94.597656 57.875 94.898438 C 57.675781 95.292969 57.28125 95.492188 56.984375 95.492188 Z M 56.984375 95.492188 "/>
<path style=" stroke:none;fill-rule:nonzero;fill:rgb(11.372549%,11.372549%,10.588235%);fill-opacity:1;" d="M 56.691406 92.316406 C 57.378906 92.316406 58.070312 93.109375 58.070312 93.804688 C 58.070312 94.699219 57.578125 95.394531 56.886719 95.394531 C 56.789062 95.394531 56.691406 95.394531 56.589844 95.394531 L 44.761719 95.394531 C 44.070312 95.394531 43.378906 94.597656 43.378906 93.90625 C 43.378906 93.109375 44.070312 92.414062 44.761719 92.414062 L 56.691406 92.414062 M 56.691406 92.019531 L 44.859375 92.019531 C 43.972656 92.019531 43.183594 92.910156 43.183594 93.804688 C 43.183594 94.699219 43.972656 95.59375 44.859375 95.59375 L 56.691406 95.59375 C 56.789062 95.59375 56.886719 95.59375 56.984375 95.59375 C 57.773438 95.59375 58.464844 94.796875 58.464844 93.707031 C 58.464844 92.910156 57.578125 92.019531 56.691406 92.019531 Z M 56.691406 92.019531 "/>
<path style=" stroke:none;fill-rule:nonzero;fill:rgb(100%,78.431374%,0%);fill-opacity:1;" d="M 62.410156 95.492188 C 61.621094 95.492188 60.832031 94.699219 60.832031 93.804688 C 60.832031 93.011719 61.621094 92.117188 62.410156 92.117188 L 83.210938 92.117188 C 84.195312 92.117188 84.789062 92.910156 84.789062 93.804688 C 84.789062 94.597656 84 95.492188 83.210938 95.492188 Z M 62.410156 95.492188 "/>
<path style=" stroke:none;fill-rule:nonzero;fill:rgb(11.372549%,11.372549%,10.588235%);fill-opacity:1;" d="M 83.210938 92.316406 C 84.195312 92.316406 84.589844 93.109375 84.589844 93.804688 C 84.589844 94.597656 83.902344 95.292969 83.210938 95.292969 L 62.410156 95.292969 C 61.71875 95.292969 61.027344 94.5 61.027344 93.804688 C 61.027344 93.011719 61.71875 92.316406 62.410156 92.316406 L 83.210938 92.316406 M 83.210938 92.019531 L 62.410156 92.019531 C 61.519531 92.019531 60.730469 92.910156 60.730469 93.804688 C 60.730469 94.699219 61.621094 95.59375 62.410156 95.59375 L 83.210938 95.59375 C 84.097656 95.59375 84.886719 94.699219 84.886719 93.804688 C 84.984375 92.910156 84.394531 92.019531 83.210938 92.019531 Z M 83.210938 92.019531 "/>
<path style=" stroke:none;fill-rule:nonzero;fill:rgb(100%,78.431374%,0%);fill-opacity:1;" d="M 89.125 95.492188 C 88.339844 95.492188 87.550781 94.699219 87.550781 93.804688 C 87.550781 93.011719 88.339844 92.117188 89.125 92.117188 L 109.929688 92.117188 C 110.71875 92.117188 111.507812 92.910156 111.507812 93.804688 C 111.507812 94.597656 110.71875 95.492188 109.929688 95.492188 Z M 89.125 95.492188 "/>
<path style=" stroke:none;fill-rule:nonzero;fill:rgb(11.372549%,11.372549%,10.588235%);fill-opacity:1;" d="M 109.929688 92.316406 C 110.621094 92.316406 111.308594 93.109375 111.308594 93.804688 C 111.308594 94.597656 110.621094 95.292969 109.929688 95.292969 L 89.125 95.292969 C 88.4375 95.292969 87.746094 94.5 87.746094 93.804688 C 87.746094 93.011719 88.4375 92.316406 89.125 92.316406 L 109.929688 92.316406 M 109.929688 92.019531 L 89.125 92.019531 C 88.238281 92.019531 87.449219 92.910156 87.449219 93.804688 C 87.449219 94.699219 88.238281 95.59375 89.125 95.59375 L 109.929688 95.59375 C 110.816406 95.59375 111.605469 94.699219 111.605469 93.804688 C 111.703125 92.910156 110.816406 92.019531 109.929688 92.019531 Z M 109.929688 92.019531 "/>
<path style=" stroke:none;fill-rule:nonzero;fill:rgb(100%,78.431374%,0%);fill-opacity:1;" d="M 32.339844 134.800781 C 30.070312 134.800781 30.070312 134.800781 29.875 134.703125 C 29.578125 134.800781 29.085938 134.800781 28.691406 134.800781 C 23.761719 134.800781 19.816406 130.53125 19.816406 125.371094 L 19.816406 39.40625 C 19.816406 38.613281 20.605469 37.71875 21.394531 37.71875 L 34.507812 37.71875 L 34.507812 1.984375 C 34.507812 1.191406 35.296875 0.296875 36.085938 0.296875 L 118.703125 0.296875 C 119.492188 0.296875 120.28125 1.09375 120.28125 1.984375 L 120.28125 103.136719 L 130.535156 103.136719 C 134.773438 103.136719 138.226562 106.609375 138.519531 110.976562 C 138.519531 115.34375 135.167969 118.917969 131.027344 118.917969 L 120.773438 118.917969 L 120.773438 120.507812 C 120.773438 128.25 114.761719 134.601562 107.367188 134.601562 C 66.351562 134.601562 47.226562 134.703125 38.15625 134.703125 C 35.394531 134.800781 33.519531 134.800781 32.339844 134.800781 Z M 22.972656 124.972656 C 22.972656 128.347656 25.4375 131.03125 28.789062 131.328125 C 32.042969 131.328125 34.507812 128.648438 34.507812 125.273438 L 34.507812 41.09375 L 22.972656 41.09375 Z M 107.167969 131.128906 C 112.789062 131.128906 117.226562 126.464844 117.226562 120.507812 L 117.226562 119.117188 L 64.085938 119.117188 C 63.789062 119.117188 63.589844 119.117188 63.296875 118.820312 L 52.945312 112.566406 C 52.351562 112.167969 52.15625 111.472656 52.15625 110.78125 C 52.253906 110.183594 52.449219 109.785156 52.945312 109.589844 L 63.394531 103.136719 C 63.691406 102.839844 63.886719 102.839844 64.183594 102.839844 L 117.324219 102.839844 L 117.324219 3.375 L 37.660156 3.375 L 37.660156 125.074219 C 37.660156 127.257812 36.972656 129.242188 35.492188 131.128906 Z M 64.578125 115.644531 L 69.804688 115.644531 L 69.804688 106.410156 L 64.578125 106.410156 L 56.984375 110.976562 Z M 130.535156 115.644531 C 133.097656 115.644531 134.875 113.757812 134.875 111.078125 C 134.875 108.496094 132.902344 106.511719 130.535156 106.511719 L 124.71875 106.511719 L 124.71875 115.742188 L 130.535156 115.742188 Z M 121.660156 115.644531 L 121.660156 112.664062 L 73.15625 112.664062 L 73.15625 115.644531 Z M 121.660156 109.390625 L 121.660156 106.410156 L 73.15625 106.410156 L 73.15625 109.390625 Z M 121.660156 109.390625 "/>
<path style=" stroke:none;fill-rule:nonzero;fill:rgb(11.372549%,11.372549%,10.588235%);fill-opacity:1;" d="M 118.703125 0.496094 C 119.394531 0.496094 120.085938 1.289062 120.085938 1.984375 L 120.085938 103.335938 L 130.535156 103.335938 C 134.773438 103.335938 138.125 106.808594 138.324219 111.078125 C 138.324219 115.34375 134.972656 118.820312 131.027344 118.820312 L 120.578125 118.820312 L 120.578125 120.605469 C 120.578125 128.347656 114.660156 134.601562 107.367188 134.601562 C 53.730469 134.601562 37.367188 134.703125 32.339844 134.703125 C 29.773438 134.703125 30.070312 134.703125 29.972656 134.601562 C 29.578125 134.703125 29.183594 134.703125 28.789062 134.703125 C 23.859375 134.703125 20.015625 130.433594 20.015625 125.371094 L 20.015625 39.40625 C 20.015625 38.613281 20.703125 37.917969 21.394531 37.917969 L 34.605469 37.917969 L 34.605469 1.984375 C 34.605469 1.191406 35.296875 0.496094 35.984375 0.496094 L 118.703125 0.496094 M 35.195312 131.226562 L 107.167969 131.226562 C 112.886719 131.226562 117.324219 126.464844 117.324219 120.507812 L 117.324219 119.019531 L 64.085938 119.019531 C 63.886719 119.019531 63.589844 119.019531 63.394531 118.71875 L 52.945312 112.46875 C 51.957031 111.671875 51.957031 110.183594 52.945312 109.6875 L 63.394531 103.234375 C 63.589844 102.9375 63.886719 102.9375 64.085938 102.9375 L 117.324219 102.9375 L 117.324219 3.175781 L 37.5625 3.175781 C 37.5625 8.4375 37.5625 119.714844 37.5625 124.972656 C 37.5625 127.554688 36.578125 129.539062 35.195312 131.226562 M 28.789062 131.527344 C 32.140625 131.527344 34.703125 128.746094 34.703125 125.273438 C 34.703125 123.980469 34.703125 45.859375 34.703125 40.898438 L 22.875 40.898438 L 22.875 124.972656 C 22.875 128.546875 25.4375 131.226562 28.789062 131.527344 M 124.621094 115.742188 L 130.535156 115.742188 C 133.097656 115.742188 135.070312 113.757812 135.070312 110.976562 C 135.070312 108.199219 132.902344 106.214844 130.535156 106.214844 L 124.621094 106.214844 L 124.621094 115.742188 M 73.054688 109.589844 L 121.859375 109.589844 L 121.859375 106.3125 L 73.054688 106.3125 L 73.054688 109.589844 M 64.480469 115.742188 L 70 115.742188 L 70 106.214844 L 64.578125 106.214844 L 56.789062 110.976562 L 64.480469 115.742188 M 73.054688 115.742188 L 121.859375 115.742188 L 121.859375 112.46875 L 73.054688 112.46875 L 73.054688 115.742188 M 118.703125 0.199219 L 36.085938 0.199219 C 35.195312 0.199219 34.410156 1.09375 34.410156 1.984375 L 34.410156 37.621094 L 21.394531 37.621094 C 20.507812 37.621094 19.71875 38.515625 19.71875 39.40625 L 19.71875 125.273438 C 19.71875 130.53125 23.761719 134.902344 28.789062 134.902344 C 29.183594 134.902344 29.578125 134.902344 29.875 134.800781 C 30.070312 134.902344 30.269531 134.902344 32.339844 134.902344 C 33.519531 134.902344 35.296875 134.902344 38.054688 134.902344 C 47.226562 134.902344 66.253906 134.800781 107.269531 134.800781 C 114.761719 134.800781 120.773438 128.347656 120.773438 120.507812 L 120.773438 119.117188 L 130.929688 119.117188 C 135.167969 119.117188 138.519531 115.542969 138.519531 111.078125 C 138.226562 106.609375 134.675781 103.035156 130.4375 103.035156 L 120.28125 103.035156 L 120.28125 1.984375 C 120.480469 1.09375 119.589844 0.199219 118.703125 0.199219 Z M 37.859375 3.472656 L 117.027344 3.472656 L 117.027344 102.738281 L 64.085938 102.738281 C 63.886719 102.738281 63.492188 102.738281 63.195312 103.035156 L 52.84375 109.488281 C 52.351562 109.785156 52.054688 110.183594 51.957031 110.878906 C 51.859375 111.574219 52.253906 112.269531 52.746094 112.765625 L 63.195312 119.019531 C 63.492188 119.316406 63.886719 119.316406 64.085938 119.316406 L 117.027344 119.316406 L 117.027344 120.507812 C 117.027344 126.363281 112.691406 130.929688 107.167969 130.929688 L 35.789062 130.929688 C 37.167969 129.042969 37.859375 127.15625 37.859375 124.972656 Z M 23.167969 41.195312 L 34.410156 41.195312 L 34.410156 125.273438 C 34.410156 128.648438 31.945312 131.226562 28.789062 131.226562 C 25.535156 130.929688 23.167969 128.347656 23.167969 125.074219 Z M 124.914062 106.609375 L 130.535156 106.609375 C 132.902344 106.609375 134.773438 108.59375 134.773438 111.078125 C 134.773438 113.65625 133 115.542969 130.535156 115.542969 L 124.914062 115.542969 Z M 73.351562 106.609375 L 121.5625 106.609375 L 121.5625 109.289062 L 73.351562 109.289062 Z M 64.578125 106.609375 L 69.605469 106.609375 L 69.605469 115.542969 L 64.578125 115.542969 L 57.28125 111.078125 Z M 73.351562 112.863281 L 121.5625 112.863281 L 121.5625 115.542969 L 73.351562 115.542969 Z M 73.351562 112.863281 "/>
</g>
</svg>
