<svg width="141" height="136" viewBox="0 0 141 136" fill="none" xmlns="http://www.w3.org/2000/svg">
<path d="M42.0793 117.274V132.371H31.7439C31.3417 132.371 30.9459 132.569 30.6534 132.854C30.361 133.138 30.1533 133.526 30.1533 133.929C30.1533 134.33 30.3537 134.718 30.6439 135.004C30.9344 135.289 31.3306 135.486 31.7439 135.486H109.251C109.654 135.486 110.049 135.288 110.342 135.004C110.634 134.72 110.842 134.332 110.842 133.929C110.842 133.528 110.641 133.139 110.351 132.854C110.061 132.569 109.665 132.371 109.251 132.371H98.9159V117.039C98.9159 114.075 101.232 111.794 104.245 111.794C111.679 111.794 118.638 108.727 123.673 103.301L123.674 103.3L138.694 86.6445L138.697 86.6404C139.895 85.2123 140.645 83.5381 140.645 81.6204C140.765 78.1475 138.633 75.6314 135.9 74.6447C133.167 73.6582 129.824 74.1962 127.513 76.8263C127.512 76.8266 127.512 76.827 127.512 76.8273L121.303 83.6277C117.033 88.2885 110.886 91.0856 104.245 91.0856H102.568C97.0463 91.0856 90.8005 93.6838 86.0066 98.1622C80.7362 102.879 77.8575 109.017 77.8575 115.397V132.137H63.3739V115.397C63.3739 101.941 52.323 91.0856 38.6633 91.0856H36.7505C30.3478 91.0856 24.1992 88.2901 19.691 83.6263L13.4815 76.8251L13.481 76.8247C8.85883 71.803 0.35 74.9063 0.35 81.8524C0.35 83.7701 1.07496 85.4458 2.29892 86.8761L2.29888 86.8761L2.3015 86.879L17.3212 103.534L17.3212 103.534L17.3227 103.536C22.3574 108.961 29.3166 112.028 36.7505 112.028C39.7635 112.028 42.0793 114.309 42.0793 117.274ZM4.93311 84.5669L4.93328 84.5668L4.92742 84.5609C4.24751 83.8856 3.79092 82.7511 3.79092 81.8524C3.79092 79.1375 6.09062 77.5454 8.17518 77.5454C9.08944 77.5454 10.2512 77.7703 11.3967 78.9068L17.6052 85.7068L17.6061 85.7077C22.6408 91.1334 29.6 94.2005 37.0338 94.2005H38.9467C50.7912 94.2005 60.2636 103.752 60.2636 115.163V131.902H45.4966V117.039C45.4966 112.26 41.5985 108.679 37.0102 108.679C30.6078 108.679 24.4592 105.884 19.9511 101.22L4.93311 84.5669ZM136.665 84.5174H136.626L136.582 84.5669L121.563 101.221C121.563 101.221 121.562 101.222 121.562 101.222C117.292 105.882 111.145 108.679 104.505 108.679C99.6506 108.679 96.0181 112.5 96.0181 117.039V132.137H81.2984V115.397C81.2984 109.584 84.1957 104.344 88.317 100.553C92.4396 96.7615 97.7715 94.4351 102.615 94.4351H104.292C111.726 94.4351 118.685 91.3679 123.72 85.9423L123.721 85.9414L129.927 79.1439C129.927 79.143 129.928 79.1422 129.929 79.1413C131.075 78.0049 132.236 77.78 133.151 77.78C135.235 77.78 137.535 79.3721 137.535 82.087C137.535 82.7434 137.319 83.6252 136.665 84.5174Z" fill="#FFC800" stroke="black" stroke-width="0.3"/>
<path d="M129.537 108.679C128.277 108.679 127.238 109.681 127.238 110.94C127.238 112.199 128.277 113.201 129.537 113.201C130.798 113.201 131.836 112.199 131.836 110.94C131.836 109.681 130.798 108.679 129.537 108.679Z" fill="#FFC800" stroke="black" stroke-width="0.3"/>
<path d="M129.537 38.6054C130.798 38.6054 131.836 37.6031 131.836 36.3442C131.836 35.0854 130.798 34.083 129.537 34.083C128.277 34.083 127.238 35.0854 127.238 36.3442C127.238 37.6031 128.277 38.6054 129.537 38.6054Z" fill="#FFC800" stroke="black" stroke-width="0.3"/>
<path d="M44.6149 17.9626C45.8754 17.9626 46.9139 16.9602 46.9139 15.7014C46.9139 14.4426 45.8754 13.4402 44.6149 13.4402C43.3544 13.4402 42.3158 14.4426 42.3158 15.7014C42.3158 16.9602 43.3544 17.9626 44.6149 17.9626Z" fill="#FFC800" stroke="black" stroke-width="0.3"/>
<path d="M10.277 12.098C11.5375 12.098 12.576 11.0956 12.576 9.83679C12.576 8.57797 11.5375 7.57559 10.277 7.57559C9.01647 7.57559 7.97793 8.57797 7.97793 9.83679C7.97793 11.0956 9.01647 12.098 10.277 12.098Z" fill="#FFC800" stroke="black" stroke-width="0.3"/>
<path d="M116.171 120.408C114.911 120.408 113.872 121.41 113.872 122.669C113.872 123.928 114.911 124.931 116.171 124.931C117.432 124.931 118.47 123.928 118.47 122.669C118.47 121.41 117.432 120.408 116.171 120.408Z" fill="#FFC800" stroke="black" stroke-width="0.3"/>
<path d="M13.1349 110.321C11.8744 110.321 10.8358 111.323 10.8358 112.582C10.8358 113.841 11.8744 114.843 13.1349 114.843C14.3954 114.843 15.4339 113.841 15.4339 112.582C15.4339 111.323 14.3954 110.321 13.1349 110.321Z" fill="#FFC800" stroke="black" stroke-width="0.3"/>
<path d="M7.18372 69.3352C8.44423 69.3352 9.48277 68.3328 9.48277 67.074C9.48277 65.8152 8.44423 64.8128 7.18372 64.8128C5.9232 64.8128 4.88467 65.8152 4.88467 67.074C4.88467 68.3328 5.9232 69.3352 7.18372 69.3352Z" fill="#FFC800" stroke="black" stroke-width="0.3"/>
<mask id="path-9-outside-1_242_51" maskUnits="userSpaceOnUse" x="46.4512" y="13.9521" width="57" height="67" fill="black">
<rect fill="white" x="46.4512" y="13.9521" width="57" height="67"/>
<path d="M60.8391 30.2452V41.2704C60.8391 46.4312 63.6966 50.8881 68.2309 53.2339V54.4068H67.9947L67.7585 54.6414C67.0501 55.5797 66.318 56.518 65.1372 57.4564C63.9564 58.3947 62.752 59.0984 61.3114 59.8021L52.7152 63.3208C50.8023 64.0246 49.1492 65.6666 47.7086 68.247C47.2363 68.9507 47.4725 69.6544 47.9448 70.1236C63.4368 83.4946 86.8166 83.4946 102.332 70.1236C102.805 69.6544 103.041 68.9507 102.568 68.247C101.128 65.9012 99.4747 64.2591 97.5618 63.3208L88.9656 59.8021C87.5251 59.0984 86.1081 58.3947 84.9037 57.2218C83.9591 56.518 83.227 55.8143 82.5185 54.6414H82.2823L82.0462 54.4068H81.5739V53.2339C86.1081 50.8881 88.9656 46.4312 88.9656 41.2704V36.8134H89.9103C90.3826 36.5789 90.6188 36.1097 90.8549 35.8751C92.5317 28.8378 91.7996 23.2079 88.7059 18.9855C86.3207 15.9359 83.6993 14.9976 83.4631 14.9976C82.5185 14.763 81.5502 15.4668 81.5502 16.4051V16.6397C79.6374 16.1705 76.5437 15.4668 72.9541 15.4668C67.4752 15.7013 60.0834 17.8126 56.0214 26.7265V26.9611C55.313 27.8994 55.5491 28.3686 56.0214 28.8378C56.2576 29.0723 58.6428 29.7761 60.7919 30.2452H60.8391ZM68.7032 58.1601C71.0884 60.5059 70.3799 59.8021 72.529 61.9133L69.1991 65.432L67.5224 59.5676C67.7585 59.0984 68.2309 58.6292 68.7032 58.1601ZM71.5607 56.518V54.4068C73.7098 54.876 75.8588 54.876 78.244 54.4068V56.7526H78.0079L74.9142 59.8021L71.5843 56.518H71.5607ZM50.33 69.1853C51.2746 67.7778 52.479 66.8395 53.4237 66.3703L62.0199 62.8517C62.9645 62.3825 63.9328 61.9133 64.8774 61.4442L67.0265 68.7161C67.2626 69.889 68.7032 70.1236 69.4117 69.4199L71.5607 67.3087L68.467 77.161C61.7837 75.9881 55.5963 73.4077 50.33 69.1853ZM71.5607 77.3955L74.8906 66.8395L78.2204 77.3955C75.8352 77.6301 73.6861 77.6301 71.5371 77.3955H71.5607ZM82.2823 68.4815L84.4314 61.2096C85.376 61.6788 86.3443 62.1479 87.2889 62.6171L95.8851 66.3703C96.8298 66.8395 98.0342 67.7778 98.9788 68.9507C93.7361 73.1731 87.5251 75.9881 80.8418 76.9264L77.7481 67.0741L79.8971 69.1853C80.6056 69.889 82.0462 69.6544 82.2823 68.4815ZM82.0462 59.5676L80.3695 65.432L76.8035 61.9133L80.6292 58.1601C81.1015 58.6292 81.5739 59.0984 82.0698 59.5676H82.0462ZM84.9037 41.0358C85.376 47.1349 80.6056 51.8265 74.6544 51.8265C68.7032 51.8265 63.9328 47.1349 63.9328 41.2704V30.949C70.3799 32.1219 74.9142 31.1835 77.2994 30.2452C77.0632 31.4181 78.244 32.1219 79.2123 31.8873L82.0698 30.7144L81.8336 31.4181C81.5975 32.591 82.5421 33.5293 83.7465 33.0602L84.9273 32.591V41.0358H84.9037ZM72.5053 18.5163C77.7481 18.2817 82.0462 20.1583 82.0462 20.1583H83.4868L83.7229 19.9238L83.9591 19.6892C83.9591 19.6892 83.9591 19.4546 84.1952 19.4546V19.22C86.1081 20.6275 88.4933 23.677 88.2572 30.2452H87.5487L86.8402 30.4798L87.0764 29.5415C87.3125 28.3686 86.1317 27.4303 85.1635 27.8994L82.0698 29.0723V28.8378C82.0698 28.134 81.8336 27.6649 81.3613 27.4303C80.889 27.1957 80.1805 27.1957 79.6846 27.6649C79.6846 27.6649 74.9142 31.1835 64.1925 28.6032C63.2479 28.3686 61.8073 28.134 60.3668 27.6649C61.8073 21.3312 66.318 18.7509 72.529 18.5163H72.5053Z"/>
</mask>
<path d="M60.8391 30.2452V41.2704C60.8391 46.4312 63.6966 50.8881 68.2309 53.2339V54.4068H67.9947L67.7585 54.6414C67.0501 55.5797 66.318 56.518 65.1372 57.4564C63.9564 58.3947 62.752 59.0984 61.3114 59.8021L52.7152 63.3208C50.8023 64.0246 49.1492 65.6666 47.7086 68.247C47.2363 68.9507 47.4725 69.6544 47.9448 70.1236C63.4368 83.4946 86.8166 83.4946 102.332 70.1236C102.805 69.6544 103.041 68.9507 102.568 68.247C101.128 65.9012 99.4747 64.2591 97.5618 63.3208L88.9656 59.8021C87.5251 59.0984 86.1081 58.3947 84.9037 57.2218C83.9591 56.518 83.227 55.8143 82.5185 54.6414H82.2823L82.0462 54.4068H81.5739V53.2339C86.1081 50.8881 88.9656 46.4312 88.9656 41.2704V36.8134H89.9103C90.3826 36.5789 90.6188 36.1097 90.8549 35.8751C92.5317 28.8378 91.7996 23.2079 88.7059 18.9855C86.3207 15.9359 83.6993 14.9976 83.4631 14.9976C82.5185 14.763 81.5502 15.4668 81.5502 16.4051V16.6397C79.6374 16.1705 76.5437 15.4668 72.9541 15.4668C67.4752 15.7013 60.0834 17.8126 56.0214 26.7265V26.9611C55.313 27.8994 55.5491 28.3686 56.0214 28.8378C56.2576 29.0723 58.6428 29.7761 60.7919 30.2452H60.8391ZM68.7032 58.1601C71.0884 60.5059 70.3799 59.8021 72.529 61.9133L69.1991 65.432L67.5224 59.5676C67.7585 59.0984 68.2309 58.6292 68.7032 58.1601ZM71.5607 56.518V54.4068C73.7098 54.876 75.8588 54.876 78.244 54.4068V56.7526H78.0079L74.9142 59.8021L71.5843 56.518H71.5607ZM50.33 69.1853C51.2746 67.7778 52.479 66.8395 53.4237 66.3703L62.0199 62.8517C62.9645 62.3825 63.9328 61.9133 64.8774 61.4442L67.0265 68.7161C67.2626 69.889 68.7032 70.1236 69.4117 69.4199L71.5607 67.3087L68.467 77.161C61.7837 75.9881 55.5963 73.4077 50.33 69.1853ZM71.5607 77.3955L74.8906 66.8395L78.2204 77.3955C75.8352 77.6301 73.6861 77.6301 71.5371 77.3955H71.5607ZM82.2823 68.4815L84.4314 61.2096C85.376 61.6788 86.3443 62.1479 87.2889 62.6171L95.8851 66.3703C96.8298 66.8395 98.0342 67.7778 98.9788 68.9507C93.7361 73.1731 87.5251 75.9881 80.8418 76.9264L77.7481 67.0741L79.8971 69.1853C80.6056 69.889 82.0462 69.6544 82.2823 68.4815ZM82.0462 59.5676L80.3695 65.432L76.8035 61.9133L80.6292 58.1601C81.1015 58.6292 81.5739 59.0984 82.0698 59.5676H82.0462ZM84.9037 41.0358C85.376 47.1349 80.6056 51.8265 74.6544 51.8265C68.7032 51.8265 63.9328 47.1349 63.9328 41.2704V30.949C70.3799 32.1219 74.9142 31.1835 77.2994 30.2452C77.0632 31.4181 78.244 32.1219 79.2123 31.8873L82.0698 30.7144L81.8336 31.4181C81.5975 32.591 82.5421 33.5293 83.7465 33.0602L84.9273 32.591V41.0358H84.9037ZM72.5053 18.5163C77.7481 18.2817 82.0462 20.1583 82.0462 20.1583H83.4868L83.7229 19.9238L83.9591 19.6892C83.9591 19.6892 83.9591 19.4546 84.1952 19.4546V19.22C86.1081 20.6275 88.4933 23.677 88.2572 30.2452H87.5487L86.8402 30.4798L87.0764 29.5415C87.3125 28.3686 86.1317 27.4303 85.1635 27.8994L82.0698 29.0723V28.8378C82.0698 28.134 81.8336 27.6649 81.3613 27.4303C80.889 27.1957 80.1805 27.1957 79.6846 27.6649C79.6846 27.6649 74.9142 31.1835 64.1925 28.6032C63.2479 28.3686 61.8073 28.134 60.3668 27.6649C61.8073 21.3312 66.318 18.7509 72.529 18.5163H72.5053Z" fill="#FFC800"/>
<path d="M60.8391 30.2452V41.2704C60.8391 46.4312 63.6966 50.8881 68.2309 53.2339V54.4068H67.9947L67.7585 54.6414C67.0501 55.5797 66.318 56.518 65.1372 57.4564C63.9564 58.3947 62.752 59.0984 61.3114 59.8021L52.7152 63.3208C50.8023 64.0246 49.1492 65.6666 47.7086 68.247C47.2363 68.9507 47.4725 69.6544 47.9448 70.1236C63.4368 83.4946 86.8166 83.4946 102.332 70.1236C102.805 69.6544 103.041 68.9507 102.568 68.247C101.128 65.9012 99.4747 64.2591 97.5618 63.3208L88.9656 59.8021C87.5251 59.0984 86.1081 58.3947 84.9037 57.2218C83.9591 56.518 83.227 55.8143 82.5185 54.6414H82.2823L82.0462 54.4068H81.5739V53.2339C86.1081 50.8881 88.9656 46.4312 88.9656 41.2704V36.8134H89.9103C90.3826 36.5789 90.6188 36.1097 90.8549 35.8751C92.5317 28.8378 91.7996 23.2079 88.7059 18.9855C86.3207 15.9359 83.6993 14.9976 83.4631 14.9976C82.5185 14.763 81.5502 15.4668 81.5502 16.4051V16.6397C79.6374 16.1705 76.5437 15.4668 72.9541 15.4668C67.4752 15.7013 60.0834 17.8126 56.0214 26.7265V26.9611C55.313 27.8994 55.5491 28.3686 56.0214 28.8378C56.2576 29.0723 58.6428 29.7761 60.7919 30.2452H60.8391ZM68.7032 58.1601C71.0884 60.5059 70.3799 59.8021 72.529 61.9133L69.1991 65.432L67.5224 59.5676C67.7585 59.0984 68.2309 58.6292 68.7032 58.1601ZM71.5607 56.518V54.4068C73.7098 54.876 75.8588 54.876 78.244 54.4068V56.7526H78.0079L74.9142 59.8021L71.5843 56.518H71.5607ZM50.33 69.1853C51.2746 67.7778 52.479 66.8395 53.4237 66.3703L62.0199 62.8517C62.9645 62.3825 63.9328 61.9133 64.8774 61.4442L67.0265 68.7161C67.2626 69.889 68.7032 70.1236 69.4117 69.4199L71.5607 67.3087L68.467 77.161C61.7837 75.9881 55.5963 73.4077 50.33 69.1853ZM71.5607 77.3955L74.8906 66.8395L78.2204 77.3955C75.8352 77.6301 73.6861 77.6301 71.5371 77.3955H71.5607ZM82.2823 68.4815L84.4314 61.2096C85.376 61.6788 86.3443 62.1479 87.2889 62.6171L95.8851 66.3703C96.8298 66.8395 98.0342 67.7778 98.9788 68.9507C93.7361 73.1731 87.5251 75.9881 80.8418 76.9264L77.7481 67.0741L79.8971 69.1853C80.6056 69.889 82.0462 69.6544 82.2823 68.4815ZM82.0462 59.5676L80.3695 65.432L76.8035 61.9133L80.6292 58.1601C81.1015 58.6292 81.5739 59.0984 82.0698 59.5676H82.0462ZM84.9037 41.0358C85.376 47.1349 80.6056 51.8265 74.6544 51.8265C68.7032 51.8265 63.9328 47.1349 63.9328 41.2704V30.949C70.3799 32.1219 74.9142 31.1835 77.2994 30.2452C77.0632 31.4181 78.244 32.1219 79.2123 31.8873L82.0698 30.7144L81.8336 31.4181C81.5975 32.591 82.5421 33.5293 83.7465 33.0602L84.9273 32.591V41.0358H84.9037ZM72.5053 18.5163C77.7481 18.2817 82.0462 20.1583 82.0462 20.1583H83.4868L83.7229 19.9238L83.9591 19.6892C83.9591 19.6892 83.9591 19.4546 84.1952 19.4546V19.22C86.1081 20.6275 88.4933 23.677 88.2572 30.2452H87.5487L86.8402 30.4798L87.0764 29.5415C87.3125 28.3686 86.1317 27.4303 85.1635 27.8994L82.0698 29.0723V28.8378C82.0698 28.134 81.8336 27.6649 81.3613 27.4303C80.889 27.1957 80.1805 27.1957 79.6846 27.6649C79.6846 27.6649 74.9142 31.1835 64.1925 28.6032C63.2479 28.3686 61.8073 28.134 60.3668 27.6649C61.8073 21.3312 66.318 18.7509 72.529 18.5163H72.5053Z" stroke="black" stroke-width="0.6" mask="url(#path-9-outside-1_242_51)"/>
<path d="M71.0053 43.4911L70.9929 43.4993L70.9824 43.5097C70.7106 43.7797 70.5839 44.1743 70.5839 44.5838C70.5839 44.9946 70.7108 45.4343 70.9636 45.8109L70.9721 45.8237L70.9831 45.8344C72.9575 47.7714 76.1404 47.7632 78.3424 45.8403L78.3426 45.8406L78.3495 45.8338C78.6213 45.5638 78.748 45.1692 78.748 44.7597C78.748 44.3489 78.6211 43.9092 78.3683 43.5326C78.0907 43.1189 77.6071 42.9953 77.1588 43.0267C76.7115 43.058 76.2557 43.2448 75.989 43.5097C75.6697 43.8269 75.1744 43.9939 74.6659 43.9939C74.1575 43.9939 73.6622 43.8269 73.3429 43.5097C73.0707 43.2393 72.6676 43.1143 72.2512 43.1143C71.833 43.1143 71.3848 43.2398 71.0053 43.4911Z" fill="#FFC800" stroke="black" stroke-width="0.3"/>
<path d="M92.4299 55.8979L92.4382 55.9103L92.4487 55.9208C92.7209 56.1912 93.124 56.3162 93.5404 56.3162C93.9586 56.3162 94.4068 56.1907 94.7863 55.9394L94.7984 55.9314L94.8087 55.9213L121.046 30.1176L121.046 30.1171C121.318 29.8471 121.445 29.4526 121.445 29.043C121.445 28.6322 121.318 28.1926 121.065 27.8159L121.057 27.8035L121.046 27.7931C120.774 27.5227 120.371 27.3976 119.955 27.3976C119.537 27.3976 119.088 27.5231 118.709 27.7744L118.697 27.7824L118.687 27.7925L92.4493 53.5962L92.4487 53.5967C92.1769 53.8667 92.0502 54.2613 92.0502 54.6708C92.0502 55.0816 92.1771 55.5213 92.4299 55.8979Z" fill="#FFC800" stroke="black" stroke-width="0.3"/>
<path d="M55.7276 89.7212L55.727 89.7218C55.4552 89.9918 55.3285 90.3863 55.3285 90.7958C55.3285 91.2067 55.4554 91.6463 55.7082 92.023L55.7165 92.0353L55.727 92.0458C55.9993 92.3162 56.4023 92.4413 56.8187 92.4413C57.237 92.4413 57.6851 92.3158 58.0646 92.0645L58.0766 92.0565L58.0869 92.0464L64.5341 85.7128L64.5347 85.7122C64.8065 85.4422 64.9332 85.0477 64.9332 84.6381C64.9332 84.2273 64.8063 83.7877 64.5535 83.411L64.5368 83.3861L64.5118 83.3695C64.1322 83.1182 63.6841 82.9927 63.2659 82.9927C62.8496 82.9927 62.4467 83.1177 62.1745 83.3878C62.1744 83.3879 62.1743 83.388 62.1742 83.3881L55.7276 89.7212Z" fill="#FFC800" stroke="black" stroke-width="0.3"/>
<path d="M47.5783 84.3234L47.5903 84.3155L47.6006 84.3054L51.6625 80.3175L51.6631 80.3169C51.9349 80.0469 52.0617 79.6524 52.0617 79.2429C52.0617 78.832 51.9348 78.3924 51.682 78.0157L51.6737 78.0034L51.6631 77.9929C51.3909 77.7225 50.9879 77.5974 50.5715 77.5974C50.1532 77.5974 49.7051 77.7229 49.3255 77.9742L49.3135 77.9822L49.3033 77.9923L45.2413 81.9801L45.2407 81.9807C44.9689 82.2507 44.8422 82.6453 44.8422 83.0548C44.8422 83.4656 44.9691 83.9053 45.2219 84.2819L45.2302 84.2943L45.2407 84.3048C45.5129 84.5752 45.916 84.7002 46.3324 84.7002C46.7506 84.7002 47.1988 84.5747 47.5783 84.3234Z" fill="#FFC800" stroke="black" stroke-width="0.3"/>
<path d="M114.859 17.9194L114.86 17.9189C115.132 17.6489 115.258 17.2543 115.258 16.8448C115.258 16.4339 115.131 15.9943 114.879 15.6176L114.87 15.6053L114.86 15.5948C114.588 15.3244 114.185 15.1994 113.768 15.1994C113.35 15.1994 112.902 15.3248 112.522 15.5762L112.51 15.5841L112.5 15.5943L94.3629 33.4222L94.3623 33.4228C94.0905 33.6928 93.9638 34.0873 93.9638 34.4968C93.9638 34.9077 94.0907 35.3473 94.3435 35.724L94.3517 35.7364L94.3623 35.7468C94.7403 36.1223 95.1961 36.3182 95.6311 36.3182C96.0641 36.3182 96.4676 36.1233 96.7328 35.737L114.859 17.9194Z" fill="#FFC800" stroke="black" stroke-width="0.3"/>
<path d="M89.7804 13.9498L89.7926 13.9417L89.803 13.9315L93.1328 10.6474L93.1332 10.647C93.405 10.377 93.5317 9.98247 93.5317 9.57295C93.5317 9.1621 93.4048 8.72247 93.152 8.34579L93.1437 8.33344L93.1332 8.32296C92.861 8.05256 92.4579 7.92751 92.0415 7.92751C91.6233 7.92751 91.1751 8.053 90.7956 8.30432L90.7835 8.31236L90.7731 8.32259L87.4432 11.6067L87.4429 11.6071C87.1711 11.8771 87.0443 12.2716 87.0443 12.6811C87.0443 13.092 87.1712 13.5316 87.424 13.9083L87.4323 13.9206L87.4429 13.9311C87.7151 14.2015 88.1181 14.3266 88.5345 14.3266C88.9528 14.3266 89.4009 14.2011 89.7804 13.9498Z" fill="#FFC800" stroke="black" stroke-width="0.3"/>
<path d="M55.7495 42.7872L55.7374 42.7952L55.7271 42.8053L31.875 66.2632L31.8745 66.2637C31.6027 66.5337 31.476 66.9283 31.476 67.3378C31.476 67.7487 31.6029 68.1883 31.8557 68.565L31.864 68.5773L31.8745 68.5878C32.1467 68.8582 32.5498 68.9832 32.9662 68.9832C33.3844 68.9832 33.8326 68.8578 34.2121 68.6064L34.2241 68.5984L34.2344 68.5883L58.0865 45.1304L58.0974 45.1198L58.1059 45.1071C58.3587 44.7304 58.4856 44.2908 58.4856 43.8799C58.4856 43.4704 58.3589 43.0759 58.0871 42.8059C57.8148 42.5355 57.4118 42.4104 56.9954 42.4104C56.5771 42.4104 56.129 42.5359 55.7495 42.7872Z" fill="#FFC800" stroke="black" stroke-width="0.3"/>
<path d="M29.9137 54.5319L29.9258 54.5239L29.9361 54.5138L51.403 33.4017L51.4035 33.4012C51.6753 33.1312 51.802 32.7366 51.802 32.3271C51.802 31.9162 51.6752 31.4766 51.4223 31.0999C51.1488 30.6923 50.7296 30.5618 50.3006 30.5941C49.8776 30.6259 49.4339 30.8148 49.0659 31.0585L49.0539 31.0664L49.0436 31.0766L27.5767 52.1887L27.5658 52.1994L27.5573 52.212C27.3045 52.5887 27.1776 53.0283 27.1776 53.4392C27.1776 53.8487 27.3044 54.2432 27.5762 54.5132L27.6819 54.4068L27.5762 54.5132C27.8484 54.7836 28.2514 54.9087 28.6678 54.9087C29.0861 54.9087 29.5342 54.7832 29.9137 54.5319Z" fill="#FFC800" stroke="black" stroke-width="0.3"/>
<path d="M82.4107 2.90651L82.4112 2.90592C82.6831 2.63593 82.8098 2.24138 82.8098 1.83186C82.8098 1.42101 82.6829 0.981378 82.4301 0.604702L82.4218 0.592353L82.4112 0.581872C82.139 0.311473 81.736 0.186426 81.3196 0.186426C80.9013 0.186426 80.4532 0.311906 80.0737 0.563229L80.0617 0.571188L80.0514 0.58129L71.4552 9.02612L71.4546 9.0267C71.1828 9.2967 71.0561 9.69125 71.0561 10.1008C71.0561 10.5116 71.1829 10.9513 71.4357 11.3279C71.7008 11.7228 72.1085 11.9221 72.5463 11.9221C72.9811 11.9221 73.4368 11.7263 73.8147 11.3511C73.8148 11.351 73.8149 11.3509 73.8151 11.3508L82.4107 2.90651Z" fill="#FFC800" stroke="black" stroke-width="0.3"/>
<path d="M9.41934 35.6406C9.41934 40.652 13.5509 44.7045 18.6379 44.7045C23.7248 44.7045 27.8564 40.652 27.8564 35.6406C27.8564 30.6291 23.7248 26.5766 18.6379 26.5766C13.5509 26.5766 9.41934 30.6291 9.41934 35.6406ZM18.4017 29.9261C21.6508 29.9261 24.2029 32.4414 24.2029 35.6406C24.2029 38.8397 21.6508 41.355 18.4017 41.355C15.1526 41.355 12.6005 38.8397 12.6005 35.6406C12.6005 32.4414 15.1526 29.9261 18.4017 29.9261Z" fill="#FFC800" stroke="black" stroke-width="0.3"/>
<path d="M109.338 60.5057C109.338 64.5786 112.737 67.9276 116.88 67.9276C121.022 67.9276 124.421 64.5786 124.421 60.5057C124.421 56.4328 121.022 53.0838 116.88 53.0838C112.737 53.0838 109.338 56.4328 109.338 60.5057ZM121.264 60.5057C121.264 62.7713 119.415 64.8127 116.88 64.8127C114.339 64.8127 112.495 63.0007 112.495 60.5057C112.495 58.0107 114.339 56.1987 116.88 56.1987C119.421 56.1987 121.264 58.0107 121.264 60.5057Z" fill="#FFC800" stroke="black" stroke-width="0.3"/>
</svg>
