<svg width="140" height="136" viewBox="0 0 140 136" fill="none" xmlns="http://www.w3.org/2000/svg">
<path d="M31.0806 102.625H23.5537V89.465C23.5537 87.1021 22.4041 84.9732 20.5383 83.5231C22.4041 82.073 23.5537 79.9441 23.5537 77.5812C23.5537 73.4566 20.1341 70.0633 15.9644 70.0633C11.7948 70.0633 8.37519 73.4566 8.37519 77.5812C8.37519 79.9441 9.52478 82.073 11.3906 83.5231C9.52478 84.9732 8.37519 87.1021 8.37519 89.465V107.528C8.37519 113.079 13.0071 117.661 18.6026 117.661H26.3672V121.877H2.53576C2.13098 121.877 1.73271 122.077 1.43857 122.365C1.14449 122.653 0.935937 123.046 0.935937 123.453C0.935937 123.858 1.13719 124.251 1.42907 124.54C1.7212 124.829 2.11981 125.029 2.53576 125.029H26.391V127.968C26.391 132.093 29.8106 135.486 33.9803 135.486C38.1499 135.486 41.5695 132.093 41.5695 127.968V112.995C41.5695 107.206 36.9376 102.625 31.1044 102.625H31.0806ZM11.5511 77.5812C11.5511 75.2837 13.4126 73.2154 15.9644 73.2154C18.5214 73.2154 20.3778 75.0512 20.3778 77.5812C20.3778 80.1112 18.5214 81.947 15.9644 81.947C13.4126 81.947 11.5511 79.8787 11.5511 77.5812ZM38.3699 127.968C38.3699 130.266 36.5083 132.334 33.9565 132.334C31.3996 132.334 29.5431 130.498 29.5431 127.968V116.085C29.5431 115.679 29.3419 115.286 29.05 114.998C28.7579 114.709 28.3593 114.509 27.9433 114.509H18.5789C14.8068 114.509 11.5273 111.481 11.5273 107.528V89.2273C11.5273 86.9298 13.3889 84.8615 15.9407 84.8615C18.4976 84.8615 20.354 86.6973 20.354 89.2273V104.201C20.354 104.606 20.5553 104.999 20.8472 105.288C21.1393 105.577 21.5379 105.777 21.9539 105.777H31.0806C35.087 105.777 38.3699 109.038 38.3699 112.995V127.968Z" fill="#FFC800" stroke="black" stroke-width="0.3"/>
<path d="M97.2332 73.8428L97.2345 73.8453C97.4882 74.3527 98.0065 74.879 98.8185 74.879C99.078 74.879 99.3956 74.8148 99.684 74.688C99.9708 74.5619 100.247 74.3656 100.4 74.0882L100.4 74.0883L100.402 74.0836L104.449 66.085H109.633C113.802 66.085 117.222 62.6916 117.222 58.567V37.6515C117.222 33.527 113.802 30.1336 109.633 30.1336H96.0926V26.9561C96.0926 22.8316 92.673 19.4382 88.5033 19.4382H45.1509L41.3413 11.4427L41.3413 11.4427L41.34 11.4401C41.0864 10.9328 40.568 10.4065 39.7561 10.4065C39.4965 10.4065 39.1789 10.4707 38.8906 10.5975C38.6037 10.7235 38.3274 10.9199 38.1748 11.1973L38.1745 11.1971L38.1701 11.2065L34.36 19.4382H29.1795C25.0099 19.4382 21.5902 22.8316 21.5902 26.9561V47.8716H21.59L21.5905 47.8804C21.833 52.0025 25.2521 55.1519 29.4172 55.1519H42.9573V58.3293C42.9573 62.4539 46.3769 65.8473 50.5465 65.8473H93.4236L97.2332 73.8428ZM98.3009 69.1561L95.5557 63.2572L95.5558 63.2572L95.5539 63.2534C95.3002 62.7461 94.7819 62.2198 93.9699 62.2198H50.2851C47.9658 62.2198 46.1094 60.384 46.1094 58.0917V37.1762C46.1094 34.8839 47.9658 33.048 50.2851 33.048H109.079C111.409 33.2822 113.262 35.1262 113.262 37.4139V37.5639H113.286V58.3293C113.286 60.6216 111.429 62.4575 109.11 62.4575H102.859C102.599 62.4575 102.282 62.5217 101.993 62.6484C101.707 62.7745 101.43 62.9708 101.278 63.2482L101.278 63.2482L101.275 63.253L98.3009 69.1561ZM25.0276 48.347V27.1061H25.0915H25.1152V26.9561H25.2415C25.2415 24.6638 27.0979 22.828 29.4172 22.828H35.668C35.9276 22.828 36.2451 22.7638 36.5335 22.637C36.8204 22.5109 37.0967 22.3146 37.2493 22.0372L37.2494 22.0373L37.2518 22.0324L40.226 16.1294L42.9713 22.0282L42.9712 22.0283L42.9731 22.032C43.2268 22.5394 43.7451 23.0657 44.5571 23.0657H88.4796C90.7989 23.0657 92.6553 24.9015 92.6553 27.1938V30.3713H50.3326C46.163 30.3713 42.7434 33.7646 42.7434 37.8892V52.4751H29.2033C26.8839 52.4751 25.0276 50.6393 25.0276 48.347Z" fill="#FFC800" stroke="black" stroke-width="0.3"/>
<path d="M103.009 8.41748C103.009 7.1442 101.965 6.12856 100.696 6.12856C99.4274 6.12856 98.3837 7.1442 98.3837 8.41748C98.3837 9.69076 99.4274 10.7064 100.696 10.7064C101.965 10.7064 103.009 9.69076 103.009 8.41748Z" fill="#FFC800" stroke="black" stroke-width="0.3"/>
<path d="M137.59 32.1848C137.59 30.9115 136.546 29.8959 135.277 29.8959C134.008 29.8959 132.965 30.9115 132.965 32.1848C132.965 33.4581 134.008 34.4737 135.277 34.4737C136.546 34.4737 137.59 33.4581 137.59 32.1848Z" fill="#FFC800" stroke="black" stroke-width="0.3"/>
<path d="M129.415 55.9525C129.415 54.6792 128.371 53.6636 127.102 53.6636C125.833 53.6636 124.789 54.6792 124.789 55.9525C124.789 57.2258 125.833 58.2414 127.102 58.2414C128.371 58.2414 129.415 57.2258 129.415 55.9525Z" fill="#FFC800" stroke="black" stroke-width="0.3"/>
<path d="M86.4431 72.3522C86.4431 71.0789 85.3994 70.0633 84.1305 70.0633C82.8615 70.0633 81.8178 71.0789 81.8178 72.3522C81.8178 73.6255 82.8615 74.6411 84.1305 74.6411C85.3994 74.6411 86.4431 73.6255 86.4431 72.3522Z" fill="#FFC800" stroke="black" stroke-width="0.3"/>
<path d="M44.4461 2.47534C44.4461 1.20206 43.4023 0.186426 42.1334 0.186426C40.8644 0.186426 39.8207 1.20206 39.8207 2.47534C39.8207 3.74862 40.8644 4.76426 42.1334 4.76426C43.4023 4.76426 44.4461 3.74862 44.4461 2.47534Z" fill="#FFC800" stroke="black" stroke-width="0.3"/>
<path d="M16.1135 18.8754C16.1135 17.6021 15.0698 16.5865 13.8009 16.5865C12.5319 16.5865 11.4882 17.6021 11.4882 18.8754C11.4882 20.1486 12.5319 21.1643 13.8009 21.1643C15.0698 21.1643 16.1135 20.1486 16.1135 18.8754Z" fill="#FFC800" stroke="black" stroke-width="0.3"/>
<path d="M35.5559 67.8362C35.5559 66.5629 34.5122 65.5473 33.2432 65.5473C31.9743 65.5473 30.9306 66.5629 30.9306 67.8362C30.9306 69.1095 31.9743 70.1251 33.2432 70.1251C34.5122 70.1251 35.5559 69.1095 35.5559 67.8362Z" fill="#FFC800" stroke="black" stroke-width="0.3"/>
<path d="M51.8227 38.8401C51.8227 39.2455 52.0239 39.6385 52.3158 39.9272C52.6079 40.2161 53.0065 40.4162 53.4225 40.4162H105.996C106.401 40.4162 106.799 40.2155 107.094 39.9278C107.388 39.6401 107.596 39.2471 107.596 38.8401C107.596 38.4347 107.395 38.0417 107.103 37.7531C106.811 37.4641 106.412 37.2641 105.996 37.2641H53.4225C53.0177 37.2641 52.6194 37.4647 52.3253 37.7525C52.0312 38.0402 51.8227 38.4332 51.8227 38.8401Z" fill="#FFC800" stroke="black" stroke-width="0.3"/>
<path d="M105.972 43.206H53.3986C52.9938 43.206 52.5955 43.4066 52.3014 43.6944C52.0073 43.9821 51.7987 44.3751 51.7987 44.782C51.7987 45.1874 52 45.5804 52.2919 45.8691C52.584 46.158 52.9826 46.3581 53.3986 46.3581H105.972C106.377 46.3581 106.775 46.1574 107.07 45.8696C107.364 45.582 107.572 45.189 107.572 44.782C107.572 44.3766 107.371 43.9836 107.079 43.6949C106.787 43.406 106.388 43.206 105.972 43.206Z" fill="#FFC800" stroke="black" stroke-width="0.3"/>
<path d="M105.972 49.1477H53.3986C52.9938 49.1477 52.5955 49.3484 52.3014 49.6361C52.0073 49.9238 51.7987 50.3168 51.7987 50.7238C51.7987 51.1292 52 51.5222 52.2919 51.8108C52.584 52.0998 52.9826 52.2998 53.3986 52.2998H105.972C106.377 52.2998 106.775 52.0992 107.07 51.8114C107.364 51.5237 107.572 51.1307 107.572 50.7238C107.572 50.3184 107.371 49.9254 107.079 49.6367C106.787 49.3478 106.388 49.1477 105.972 49.1477Z" fill="#FFC800" stroke="black" stroke-width="0.3"/>
<path d="M75.9779 55.0897H53.4225C53.0177 55.0897 52.6194 55.2904 52.3253 55.5782C52.0312 55.8658 51.8227 56.2589 51.8227 56.6658C51.8227 57.0712 52.0239 57.4642 52.3158 57.7529C52.6079 58.0418 53.0065 58.2419 53.4225 58.2419H75.9779C76.3827 58.2419 76.781 58.0412 77.0751 57.7534C77.3692 57.4658 77.5777 57.0727 77.5777 56.6658C77.5777 56.2604 77.3765 55.8674 77.0846 55.5787C76.7925 55.2898 76.3939 55.0897 75.9779 55.0897Z" fill="#FFC800" stroke="black" stroke-width="0.3"/>
<path d="M123.988 22.828C129.108 22.828 133.265 18.7219 133.265 13.6463C133.265 8.57074 129.108 4.46462 123.988 4.46462C118.868 4.46462 114.711 8.57074 114.711 13.6463C114.711 18.7219 118.868 22.828 123.988 22.828ZM123.988 7.85441C127.258 7.85441 129.828 10.4029 129.828 13.6463C129.828 16.8897 127.258 19.4382 123.988 19.4382C120.718 19.4382 118.125 16.889 118.125 13.6463C118.125 10.4032 120.694 7.85441 123.988 7.85441Z" fill="#FFC800" stroke="black" stroke-width="0.3"/>
<path d="M11.402 59.9054C14.8341 59.9054 17.5652 57.2257 17.5652 53.8135C17.5652 50.4016 14.8583 47.7216 11.402 47.7216C7.94497 47.7216 5.2626 50.4024 5.2626 53.8135C5.2626 57.225 7.96913 59.9054 11.402 59.9054ZM11.402 50.8737C13.0074 50.8737 14.3656 52.2333 14.3656 53.8135C14.3656 55.3929 12.9844 56.7533 11.402 56.7533C9.81965 56.7533 8.43847 55.3929 8.43847 53.8135C8.43847 52.2341 9.81965 50.8737 11.402 50.8737Z" fill="#FFC800" stroke="black" stroke-width="0.3"/>
<path d="M79.4715 133.863C79.22 133.108 78.468 132.346 77.4278 132.334V132.334H77.4041H76.128V96.9829H104.784C108.954 96.9829 112.374 93.5896 112.374 89.465C112.374 85.3404 108.954 81.947 104.784 81.947H35.8821C31.7125 81.947 28.2929 85.3404 28.2929 89.465C28.2929 93.5896 31.7125 96.9829 35.8821 96.9829H64.0631V132.334H62.7632C62.3585 132.334 61.9602 132.535 61.6661 132.823C61.372 133.11 61.1634 133.503 61.1634 133.91C61.1634 134.316 61.3647 134.709 61.6566 134.997C61.9487 135.286 62.3473 135.486 62.7632 135.486H77.8794C78.2842 135.486 78.6825 135.286 78.9766 134.998C79.2707 134.71 79.4792 134.317 79.4792 133.91V133.886L79.4715 133.863ZM31.4714 89.615H31.4925V89.465C31.4925 87.1675 33.3541 85.0991 35.9059 85.0991H105.046C107.37 85.0991 109.459 86.94 109.459 89.465C109.459 91.995 107.603 93.8308 105.046 93.8308H35.8821C33.386 93.8308 31.5503 91.8518 31.4714 89.615ZM67.2627 120.556V117.115L72.9521 113.277V116.718L67.2627 120.556ZM72.9521 96.9829V109.35L67.2627 113.188V96.9829H72.9521ZM67.2627 132.334V124.483L72.9521 120.645V132.334H67.2627Z" fill="#FFC800" stroke="black" stroke-width="0.3"/>
<path d="M137.417 121.877H113.562V117.661H121.327C126.922 117.661 131.554 113.079 131.554 107.528V89.2273C131.554 86.8644 130.405 84.7355 128.539 83.2854C130.405 81.8353 131.554 79.7064 131.554 77.3435C131.554 73.219 128.135 69.8256 123.965 69.8256C119.795 69.8256 116.376 73.219 116.376 77.3435C116.376 79.7064 117.525 81.8353 119.391 83.2854C117.525 84.7355 116.376 86.8644 116.376 89.2273V102.625H108.849C103.016 102.625 98.3837 107.206 98.3837 112.995V127.968C98.3837 132.093 101.803 135.486 105.973 135.486C110.143 135.486 113.562 132.093 113.562 127.968V125.029H137.417C137.822 125.029 138.22 124.828 138.515 124.54C138.803 124.258 139.009 123.875 139.017 123.477C139.145 123.064 138.999 122.659 138.702 122.366C138.401 122.068 137.94 121.877 137.417 121.877ZM119.575 77.5812C119.575 75.2837 121.437 73.2154 123.989 73.2154C126.546 73.2154 128.402 75.0512 128.402 77.5812C128.402 80.1112 126.546 81.9471 123.989 81.9471C121.437 81.9471 119.575 79.8787 119.575 77.5812ZM110.386 127.968C110.386 130.266 108.525 132.334 105.973 132.334C103.416 132.334 101.56 130.498 101.56 127.968V112.995C101.56 109.038 104.842 105.777 108.849 105.777H117.976C118.38 105.777 118.779 105.576 119.073 105.289C119.367 105.001 119.575 104.608 119.575 104.201V89.2273C119.575 86.9298 121.437 84.8615 123.989 84.8615C126.546 84.8615 128.402 86.6973 128.402 89.2273V107.528C128.402 111.25 125.354 114.509 121.351 114.509H111.986C111.581 114.509 111.183 114.709 110.889 114.997C110.595 115.285 110.386 115.678 110.386 116.085V127.968Z" fill="#FFC800" stroke="black" stroke-width="0.3"/>
</svg>
